<?xml version="1.0" standalone="no"?>
<!DOCTYPE svg PUBLIC "-//W3C//DTD SVG 1.1//EN" "http://www.w3.org/Graphics/SVG/1.1/DTD/svg11.dtd" >
<!--
2013-9-30: Created.
-->
<svg>
<metadata>
Created by iconfont
</metadata>
<defs>

<font id="iconfont" horiz-adv-x="1024" >
  <font-face
    font-family="iconfont"
    font-weight="500"
    font-stretch="normal"
    units-per-em="1024"
    ascent="896"
    descent="-128"
  />
    <missing-glyph />
    
    <glyph glyph-name="gouwucheman" unicode="&#58898;" d="M346.112 89.088q19.456 0 36.864-7.168t30.208-19.968 20.48-30.208 7.68-36.864-7.68-36.864-20.48-30.208-30.208-20.48-36.864-7.68q-20.48 0-37.888 7.68t-30.208 20.48-20.48 30.208-7.68 36.864 7.68 36.864 20.48 30.208 30.208 19.968 37.888 7.168zM772.096 87.04q19.456 0 37.376-7.168t30.72-19.968 20.48-30.208 7.68-36.864-7.68-36.864-20.48-30.208-30.72-20.48-37.376-7.68-36.864 7.68-30.208 20.48-20.48 30.208-7.68 36.864 7.68 36.864 20.48 30.208 30.208 19.968 36.864 7.168zM944.128 668.672q28.672 0 44.544-7.68t22.528-18.944 6.144-24.064-3.584-22.016-13.312-37.888-22.016-62.976-23.552-68.096-18.944-53.248q-13.312-40.96-33.28-56.832t-49.664-15.872l-35.84 0-65.536 0-86.016 0-96.256 0-253.952 0 14.336-92.16 517.12 0q49.152 0 49.152-41.984 0-20.48-9.728-35.328t-38.4-14.848l-49.152 0-94.208 0-118.784 0-119.808 0-99.328 0-55.296 0q-20.48 0-34.304 9.216t-23.04 24.064-14.848 32.256-8.704 32.768q-1.024 6.144-5.632 29.696t-11.264 58.88-14.848 78.848-16.384 87.552q-19.456 103.424-44.032 230.4l-76.8 0q-15.36 0-25.6 7.68t-16.896 18.432-9.216 23.04-2.56 22.528q0 20.48 13.824 33.792t37.376 13.312l21.504 0 21.504 0 25.6 0 34.816 0q20.48 0 32.768-6.144t19.456-15.36 10.24-19.456 5.12-17.408q2.048-8.192 4.096-23.04t4.096-30.208q3.072-18.432 6.144-38.912l700.416 0zM867.328 701.44l-374.784 0 135.168 135.168q23.552 23.552 51.712 24.064t51.712-23.04z"  horiz-adv-x="1024" />

    
    <glyph glyph-name="fanhui" unicode="&#58880;" d="M629.376 736 330.624 428.032 330.624 428.032 288 384 330.624 340.032 330.688 340.032 629.376 32.064 672 76.032 373.312 384 672 691.968Z"  horiz-adv-x="1024" />

    
    <glyph glyph-name="iconfontcha" unicode="&#58883;" d="M754.782 683.404 512 440.632 269.218 683.404c-13.081 13.081-34.29 13.081-47.369 0-13.081-13.081-13.081-34.288 0-47.367l242.782-242.771L221.849 150.493c-13.081-13.081-13.081-34.288 0-47.367 13.081-13.081 34.29-13.081 47.369 0L512 345.897l242.782-242.771c13.081-13.081 34.289-13.081 47.37 0 13.081 13.081 13.081 34.288 0 47.367L559.37 393.265l242.782 242.771c13.081 13.081 13.081 34.288 0 47.367C789.07 696.483 767.862 696.483 754.782 683.404z"  horiz-adv-x="1024" />

    
    <glyph glyph-name="shezhi" unicode="&#59047;" d="M644.056642-104.882354c-0.001023 0-0.001023 0-0.00307 0-15.803941 0.001023-31.162744 6.53688-41.084721 17.482163-13.517875 14.81952-56.346309 53.357232-91.402733 53.357232-34.8139 0-78.304414-38.759769-90.794889-52.338019-9.898441-10.760065-25.15082-17.183358-40.802288-17.183358-7.453762 0-14.488992 1.430582-20.910239 4.252861l-1.12359 0.493234-106.558921 59.586097-1.058099 0.73985c-19.399839 13.580297-26.78197 40.140209-17.171078 61.782112 0.072655 0.167822 9.827833 22.674419 9.827833 43.196825 0 62.282508-50.671053 112.954585-112.953561 112.954585l-3.776 0c-0.229221-0.005117-0.458441-0.008186-0.686638-0.008186-17.841344 0-32.367175 15.847943-37.007869 40.374546-0.37146 1.962701-9.094122 48.488341-9.094122 85.144192 0 36.654828 8.720615 83.181491 9.092076 85.144192 4.699022 24.839735 19.542078 40.796148 37.69553 40.367383l3.777023 0c62.283532 0 112.953561 50.671053 112.953561 112.954585 0 20.518313-9.750061 43.019793-9.849322 43.24492-9.599635 21.621437-2.169409 48.178279 17.310248 61.715597l1.104147 0.76748 112.459305 61.768809 1.169639 0.49835c6.332219 2.699482 13.268188 4.068665 20.615527 4.068665 15.613606 0 30.898731-6.284123 40.888246-16.810874 13.310144-13.93743 55.382355-50.181913 89.433892-50.181913 33.732266 0 75.546603 35.529191 88.811722 49.220005 9.93221 10.313903 25.107841 16.488533 40.569998 16.488533 7.495718 0 14.560624-1.418302 20.995173-4.214998l1.13894-0.49528 108.614743-60.344367 1.073448-0.74906c19.431561-13.5629 26.833135-40.122813 17.214057-61.781088-0.071631-0.165776-9.826809-22.673395-9.826809-43.194778 0-62.283532 50.671053-112.954585 112.953561-112.954585l3.776 0c18.129916 0.403183 32.995485-15.525602 37.69553-40.365336 0.370437-1.963725 9.093099-48.489364 9.093099-85.145216 0-36.655851-8.722662-83.181491-9.094122-85.144192-4.701069-24.840758-19.561521-40.73782-37.69553-40.36636l-3.774977 0c-62.282508 0-112.953561-50.672076-112.953561-112.954585 0-20.518313 9.749038-43.018769 9.848299-43.243897 9.594519-21.60711 2.181689-48.165999-17.269315-61.718667l-1.087774-0.75827-110.448508-61.045331-1.153266-0.497327C658.268318-103.501914 651.358955-104.882354 644.056642-104.882354zM640.702244-52.84621c0.493234-0.323365 1.886977-0.871857 3.353374-0.871857 0.060375 0 0.115634 0.001023 0.166799 0.00307l103.192244 57.034994c-2.489704 5.786797-13.882172 33.869389-13.882172 63.164598 0 87.60729 69.003584 159.402453 155.511843 163.896814 1.245364 6.873548 8.006348 45.547359 8.006348 74.568323 0 29.014824-6.757914 67.675332-8.005324 74.568323-86.508259 4.494361-155.512866 76.289524-155.512866 163.896814 0 29.335119 11.425214 57.45762 13.896498 63.197344l-101.517091 56.402591c-0.11768 0.008186-0.258896 0.014326-0.423649 0.014326-1.730411 0-3.348258-0.630357-3.88447-0.99056-1.702782-1.750877-16.419971-16.673751-37.556361-31.543414-31.28861-22.01234-60.875462-33.17354-87.940888-33.17354-27.329439 0-57.153698 11.381212-88.643899 33.827433-21.266349 15.158235-36.050054 30.365588-37.756929 32.148188-0.541329 0.369414-2.175549 1.01819-3.920286 1.01819-0.13917 0-0.25992-0.004093-0.363274-0.011256l-105.149828-57.754379c2.518357-5.859451 13.868869-33.892925 13.868869-63.132876 0-87.60729-69.00563-159.402453-155.51389-163.896814-1.246387-6.880711-8.004301-45.550429-8.004301-74.568323 0-29.014824 6.757914-67.675332 8.006348-74.568323 86.508259-4.494361 155.511843-76.289524 155.511843-163.896814 0-29.391401-11.469216-57.564044-13.911848-63.231113l99.519598-55.649438c0.065492-0.00307 0.13917-0.005117 0.220011-0.005117 1.455141 0 2.834558 0.533143 3.323699 0.849344 1.860371 1.99954 16.726963 17.73185 38.135552 33.423227 31.91385 23.388686 62.240553 35.248805 90.137926 35.248805 28.163433 0 58.72038-12.08627 90.821495-35.922141C623.920022-34.789972 638.84392-50.819041 640.702244-52.84621zM511.933485 155.093702c-82.945107 0-150.426011 67.480904-150.426011 150.426011 0 82.945107 67.480904 150.426011 150.426011 150.426011 82.945107 0 150.426011-67.480904 150.426011-150.426011C662.359496 222.57563 594.878592 155.093702 511.933485 155.093702zM511.933485 404.780415c-54.732555 0-99.260701-44.528146-99.260701-99.260701 0-54.732555 44.528146-99.260701 99.260701-99.260701 54.732555 0 99.260701 44.528146 99.260701 99.260701C611.194186 360.252269 566.667064 404.780415 511.933485 404.780415z"  horiz-adv-x="1024" />

    
    <glyph glyph-name="weibiaoti1" unicode="&#58923;" d="M897.138688 631.349248 109.338624 631.349248c-41.85088 0-75.776-33.92512-75.776-75.776l0-491.52c0-41.85088 33.92512-75.776 75.776-75.776l787.800064 0c41.85088 0 75.776 33.92512 75.776 75.776l0 491.52C972.914688 597.424128 938.98752 631.349248 897.138688 631.349248zM503.236608 83.167232c-125.17376 0-226.646016 101.474304-226.646016 226.646016 0 125.17376 101.472256 226.646016 226.646016 226.646016 125.175808 0 226.646016-101.472256 226.646016-226.646016C729.884672 184.641536 628.412416 83.167232 503.236608 83.167232zM503.238656 309.813248m-157.507584 0a76.908 76.908 0 1 0 315.015168 0 76.908 76.908 0 1 0-315.015168 0ZM633.673728 699.385856c-4.907008 10.139648-18.13504 18.434048-29.39904 18.434048l-202.072064 0c-11.264 0-24.49408-8.296448-29.39904-18.434048L329.201664 609.28c-4.907008-10.139648 0.29696-18.434048 11.56096-18.434048l324.952064 0c11.264 0 16.46592 8.296448 11.56096 18.434048L633.673728 699.385856zM585.158656 673.445888c0-2.627584-9.216-4.777984-20.48-4.777984l-122.88 0c-11.264 0-20.48 2.1504-20.48 4.777984 0 2.629632 9.216 4.777984 20.48 4.777984l122.88 0C575.942656 678.22592 585.158656 676.07552 585.158656 673.445888z"  horiz-adv-x="1024" />

    
    <glyph glyph-name="mima" unicode="&#58925;" d="M880-212 144-212c-29.248 0-64 31.104-64 64L80 396c0 23.68 32.032 64 64 64 15.328 0 64 0 64 0L208 556c0 149.44 128.768 254.528 288 256 156.608-1.472 288-104.096 288-256l0-64-64 0L720 556c0 124.64-94.432 191.296-224 192C363.392 747.232 272 678.592 272 556l0-96 512 0c0 0 76.576 0 96 0 35.072 0 64-28.384 64-64l0-544C944-179.68 909.248-212 880-212zM880 396 144 396l0-544 736 0L880 396zM528 332c88.352 0 160-71.648 160-160 0-77.408-54.976-141.952-128-156.768L560-84c0-17.664-14.336-32-32-32-17.664 0-32 14.336-32 32l0 99.232c-73.024 14.816-128 79.36-128 156.768C368 260.352 439.648 332 528 332zM528 76c53.024 0 96 42.976 96 96 0 53.024-42.976 96-96 96-53.024 0-96-42.976-96-96C432 118.976 474.976 76 528 76z"  horiz-adv-x="1024" />

    
    <glyph glyph-name="fenxiang" unicode="&#58882;" d="M864.909655 284.840742c-18.73469 0-33.933857-15.20019-33.933857-33.933857l0-296.659537c0-6.229888-5.081739-11.311627-11.311627-11.311627L144.757918-57.064278c-6.229888 0-11.311627 5.081739-11.311627 11.311627L133.446291 625.398068c0 6.241145 5.081739 11.311627 11.311627 11.311627l409.353179 0c18.73469 0 33.933857 15.188934 33.933857 33.933857s-15.20019 33.933857-33.933857 33.933857l-409.353179 0c-43.655266 0-79.17934-35.525098-79.17934-79.17934l0-671.15072c0-43.655266 35.525098-79.17934 79.17934-79.17934l674.906254 0c43.655266 0 79.17934 35.525098 79.17934 79.17934L898.843512 250.906885C898.843512 269.640552 883.644345 284.840742 864.909655 284.840742zM957.322391 547.742431 785.53077 717.413761c-13.3214 13.156648-34.795481 13.046131-47.984874-0.297782-13.166881-13.332656-13.034874-34.817993 0.309038-47.996131l114.101711-112.695688c-398.379243-15.948227-486.772432-385.191896-487.687268-389.159254-4.1536-18.270109 7.312546-36.453237 25.583678-40.605813 2.518357-0.574075 5.059226-0.839111 7.53358-0.839111 15.509229 0 29.493731 10.671037 33.072233 26.422789 3.167133 13.951757 76.960813 321.934177 422.731884 336.390423L730.784912 360.386322c-12.945847-13.553691-12.438287-35.039028 1.104147-47.973618 6.583952-6.27389 15.023158-9.388834 23.439852-9.388834 8.947789 0 17.873066 3.523243 24.545022 10.505261l178.154539 186.637748C970.820823 513.553771 970.511785 534.730069 957.322391 547.742431z"  horiz-adv-x="1024" />

    
    <glyph glyph-name="bianji" unicode="&#58891;" d="M815.530015-63.469288 195.138352-63.469288c-32.114418 0-65.541739 14.130835-90.841961 39.431058-25.299199 25.300222-40.307008 57.850569-40.307008 89.964988L63.989383 710.780555c0 33.147958 15.633049 63.797002 43.11496 85.248569 24.100908 18.813484 55.6873 29.753651 88.035032 29.753651l336.698438 0c16.888645 0 30.579459-13.81054 30.579459-30.699186s-13.690814-30.699186-30.579459-30.699186L195.138352 764.384403c-33.180703 0-69.750597-21.060665-69.750597-53.603849l0-644.85482c0-33.530674 36.220946-67.997674 69.750597-67.997674l620.391662 0c32.54216 0 51.754734 34.81697 51.754734 67.997674L867.284749 398.546298c0 16.888645 13.81054 30.579459 30.699186 30.579459s30.699186-13.690814 30.699186-30.579459l0-332.620563c0-32.347732-10.015098-63.056128-28.827559-87.158059C878.403994-48.714236 848.678996-63.469288 815.530015-63.469288zM488.650199 345.786677c-9.912767 0-19.826558 3.78214-27.389814 11.346419-15.126512 15.126512-15.126512 39.650045 0 54.776557L870.335225 820.983469c15.126512 15.126512 39.652092 15.126512 54.778604 0s15.126512-39.650045 0-54.776557L516.03899 357.133096C508.475733 349.568816 498.561943 345.786677 488.650199 345.786677z"  horiz-adv-x="1024" />

    
    <glyph glyph-name="shibai" unicode="&#58892;" d="M501.317707 357.612003 382.607024 238.871645c-9.365298-9.367345-24.552186-9.367345-33.917484 0-9.365298 9.369392-9.365298 24.557302 0 33.926694l118.711705 118.739335L348.68954 510.277008c-9.365298 9.368368-9.365298 24.557302 0 33.92567 9.365298 9.368368 24.552186 9.368368 33.917484 0l118.711705-118.739335 118.711705 118.739335c9.366322 9.368368 24.552186 9.368368 33.916461 0 9.366322-9.368368 9.366322-24.557302 0-33.92567L535.235191 391.53665l118.710682-118.739335c9.366322-9.369392 9.366322-24.557302 0-33.926694-9.365298-9.367345-24.550139-9.367345-33.916461 0L501.317707 357.612003zM428.547333 8.052652c-33.752732 7.254218-66.269309 19.036565-96.822163 35.045167-11.733229 6.148024-16.263405 20.645203-10.117428 32.381501 6.145977 11.736299 20.641109 16.265452 32.374338 10.118452 25.863041-13.550621 53.328579-23.63735 81.83789-30.022781 0.165776-0.033769 0.331551-0.068562 0.496304-0.106424 0.765433-0.170892 1.528819-0.340761 2.294252-0.506537 23.074531-4.960988 46.817282-7.502881 70.936609-7.502881 15.149025 0 30.065759 1.00284 44.682665 2.947122 14.133905 1.917676 28.228925 4.746094 42.219567 8.495488 23.623024 6.331195 45.978171 15.030321 66.881247 25.774013 44.13929 22.786982 82.578764 55.078433 112.610754 94.167706 29.975708 39.133276 51.210335 84.628446 61.792345 133.173069 4.965082 22.974247 7.579629 46.826492 7.579629 71.287603 0 14.859429-0.964978 29.492708-2.835581 43.841507-1.906419 14.344706-4.761444 28.729322-8.604982 43.082214-6.330172 23.62814-15.027252 45.989427-25.767873 66.896596-22.782889 44.150546-55.066153 82.598206-94.146217 112.63736-39.123043 29.982872-84.60798 51.222615-133.140323 61.806671-22.970154 4.967128-46.815235 7.581676-71.27123 7.581676-14.855336 0-29.485545-0.964978-43.831274-2.835581-14.341636-1.906419-28.722158-4.762467-43.071981-8.608052-23.623024-6.332219-45.978171-15.030321-66.881247-25.774013-44.13929-22.788006-82.578764-55.078433-112.610754-94.16873-29.975708-39.133276-51.210335-84.628446-61.792345-133.172045-4.964058-22.974247-7.579629-46.826492-7.579629-71.288626 0-14.424524 0.908696-28.719088 2.701528-42.820248 1.905396-14.683421 4.803399-29.40982 8.740058-44.103474 12.084223-45.11143 33.010835-86.425372 61.434188-122.145921 8.248871-10.365068 6.534833-25.457812-3.828188-33.708729s-25.451672-6.535857-33.700543 3.830235c-20.550035 25.823132-37.673018 54.205553-50.974975 84.602863-0.217964 0.428765-0.423649 0.865717-0.618077 1.312902-14.097066 32.397874-23.64042 66.612117-28.338419 101.873202-6.124488 45.12371-4.031826 89.911776 5.281283 132.63174 12.172227 56.329936 36.705993 108.056018 70.619384 152.196331 33.848922 44.189432 77.450976 81.281211 128.698151 107.621113 38.542828 19.897166 80.888262 33.45495 125.659955 39.292911 44.756343 5.951549 89.167832 3.817955 131.546012-5.423523 56.31561-12.175297 108.030435-36.715203 152.160515-70.635757 44.179199-33.858132 81.261769-77.470419 107.59553-128.729873 19.892049-38.549991 33.446763-80.907705 39.283702-125.68963 5.950526-44.766576 3.816932-89.189322-5.421476-131.576711-12.173251-56.329936-36.705993-108.056018-70.619384-152.196331-33.848922-44.189432-77.450976-81.281211-128.698151-107.621113-38.889729-20.076244-81.651648-33.69952-126.871549-39.449477C514.935865-3.072733 471.117894-1.175523 428.547333 8.052652z"  horiz-adv-x="1024" />

    
    <glyph glyph-name="zhifubao" unicode="&#58899;" d="M826.028178 250.954894c88.693053 161.26482 120.946646 314.457186 120.946646 314.457186l-16.129159 0 0 0-137.069506 0-145.134086 0 0 112.888366 354.773785 0 0 48.374879L648.642073 726.675325 648.642073 896 487.383553 896l0-169.324675-322.520191 0 0-48.374879 322.520191 0 0-112.888366L213.239815 565.41208l0-48.376454 556.348904 0c0-8.06458 0-8.06458-8.06458-16.12286 0-56.441033-40.311874-137.074231-72.563893-201.575119C277.745428 460.597742 156.797207 363.838535 124.545188 347.715675-149.593825 154.205136 108.423903-87.689732 148.740502-79.625152c290.269747-64.504038 475.714132 56.441033 604.725358 209.641274 8.05828-8.066154 16.12286-8.066154 24.18744-8.066154 88.693053-48.374879 516.032306-249.949998 516.032306-249.949998L1293.685605 113.885387C1229.178417 113.885387 995.351278 194.51701 826.028178 250.954894L826.028178 250.954894zM616.390054 178.391c-201.575119-258.016153-443.460538-177.386105-483.778712-161.255371-96.751333 24.18744-129.004927 201.575119-8.06458 258.016153 201.575119 64.499314 378.962799-8.06458 507.97245-72.570193C624.453059 186.45558 616.390054 178.391 616.390054 178.391L616.390054 178.391zM616.390054 178.391"  horiz-adv-x="1294" />

    
    <glyph glyph-name="shouye201" unicode="&#58953;" d="M634.543476-22.099065l168.520111 0L803.063587 299.554726 1002.147808 299.554726 512.290107 790.099065l0 0L21.851169 299.554726l199.137433 0 0-321.653791 186.446389 0M512.290107 790.099065"  horiz-adv-x="1024" />

    
    <glyph glyph-name="shenheshibai" unicode="&#59055;" d="M959.163319 384c0 246.961648-200.201671 447.163319-447.163319 447.163319-246.961648 0-447.163319-200.202695-447.163319-447.163319 0-246.962671 200.202695-447.163319 447.163319-447.163319C758.961648-63.163319 959.163319 137.038352 959.163319 384zM305.616536 223.479073l160.520927 160.519904L305.616536 544.519904l45.863561 45.863561 160.519904-160.520927 160.519904 160.519904 45.863561-45.862537L557.863561 383.998977l160.519904-160.519904-45.863561-45.862537L512 338.136439 351.480096 177.616536 305.616536 223.479073z"  horiz-adv-x="1024" />

    
    <glyph glyph-name="ios-copy" unicode="&#58904;" d="M666.867 729.066c57.877 64.679 53.744 161.479 53.744 161.479s-97.665-7.83-155.546-72.596c-57.876-64.598-53.762-161.559-53.762-161.559s97.683 7.908 155.564 72.676v0zM786.733 350.659c0.903 82.428 48.052 153.827 116.766 190.348-47.007 68.214-130.627 106.586-188.982 107.226-70.207 0.769-167.441-46.803-195.505-46.497-29.804 0.327-91.836 44.985-175.060 47.086-68.711 1.763-184.677-36.188-226.379-152.051-41.682-115.87-41.626-283.952 41.201-441.005 66.412-125.772 125.786-177.084 183.707-177.717 58.031-0.638 126.905 42.068 181.391 41.471 54.39-0.597 104.869-44.61 161.071-45.227 56.131-0.617 114.565 43.985 157.395 105.95 42.813 62.060 82.581 158.794 82.581 158.794s0.263 2.621 0.829 6.26c-82.292 32.681-140.031 112.528-139.013 205.364v0zM786.733 350.659z"  horiz-adv-x="1024" />

    
    <glyph glyph-name="more" unicode="&#58903;" d="M321.11809 830.387653 257.085728 766.990764 638.078998 383.384993 253.882779 3.007753 317.372789-60.917162 765.594207 382.862084Z"  horiz-adv-x="1024" />

    
    <glyph glyph-name="shanchu" unicode="&#58927;" d="M874.048 746.048c-199.936 199.872-524.16 199.936-724.096 0-199.936-200-199.872-524.16 0-724.096 199.936-199.872 524.096-200 724.096 0C1073.984 221.952 1073.984 546.112 874.048 746.048M191.232 63.232c-176.832 176.896-176.832 464.64 0.064 641.408s464.576 176.832 641.344 0 176.832-464.512 0-641.344C655.808-113.536 368.128-113.472 191.232 63.232M718.336 228.224 562.688 383.936l155.648 155.776c14.016 14.016 14.016 36.672 0 50.688-13.952 13.952-36.672 14.016-50.624 0L511.936 434.688 356.224 590.4c-13.952 13.952-36.608 14.016-50.624 0S291.712 553.664 305.664 539.776l155.648-155.712-155.712-155.776c-14.016-13.952-13.952-36.672 0.064-50.624 13.952-13.952 36.608-14.016 50.624-0.064l155.776 155.776 155.712-155.712c13.952-13.952 36.608-14.016 50.56 0C732.288 191.616 732.288 214.336 718.336 228.224"  horiz-adv-x="1024" />

    
    <glyph glyph-name="saoyisao1" unicode="&#59005;" d="M954.976974 417.383318 66.115813 417.383318c-18.87079 0-34.186613-14.294564-34.186613-31.907711s15.315824-31.907711 34.186613-31.907711l888.860137 0c18.905582 0 34.186613 14.294564 34.186613 31.907711S973.881532 417.383318 954.976974 417.383318zM95.744621 542.597111c17.622356 0 31.907711 14.285355 31.907711 31.907711L127.652332 736.460424c0 17.593703 14.314007 31.907711 31.907711 31.907711l223.844138 0c17.622356 0 31.907711 14.285355 31.907711 31.907711s-14.285355 31.907711-31.907711 31.907711L159.560042 832.183556c-52.782134 0-95.723132-42.940998-95.723132-95.723132L63.836911 574.504822C63.836911 556.883489 78.122265 542.597111 95.744621 542.597111zM383.40418 2.580011 159.560042 2.580011c-17.593703 0-31.907711 14.314007-31.907711 31.908734L127.652332 191.789327c0 17.622356-14.285355 31.907711-31.907711 31.907711s-31.907711-14.285355-31.907711-31.907711l0-157.300582c0-52.782134 42.940998-95.723132 95.723132-95.723132l223.844138 0c17.622356 0 31.907711 14.285355 31.907711 31.907711S401.026536 2.580011 383.40418 2.580011zM925.347143 223.697037c-17.622356 0-31.907711-14.285355-31.907711-31.907711l0-157.300582c0-17.593703-14.314007-31.908734-31.908734-31.908734L639.23073 2.580011c-17.622356 0-31.907711-14.285355-31.907711-31.907711s14.285355-31.907711 31.907711-31.907711l222.300992 0c52.782134 0 95.723132 42.940998 95.723132 95.723132L957.254853 191.789327C957.254853 209.411683 942.969499 223.697037 925.347143 223.697037zM639.23073 768.369158l222.300992 0c17.593703 0 31.908734-14.314007 31.908734-31.907711L893.440455 574.504822c0-17.622356 14.285355-31.907711 31.907711-31.907711s31.907711 14.285355 31.907711 31.907711L957.255877 736.460424c0 52.782134-42.940998 95.723132-95.723132 95.723132L639.23073 832.183556c-17.622356 0-31.907711-14.285355-31.907711-31.907711S621.608374 768.369158 639.23073 768.369158z"  horiz-adv-x="1024" />

    
    <glyph glyph-name="qian" unicode="&#58922;" d="M837.989 834l-119.6595 0-134.433-251.28c-35.8785-68.112-57.78-113.427-65.808-135.774l-2.358 0C492.092 501.468 425.384 630.4515 315.4355 834L188.9855 834 424.205 424.2615 231.3215 424.2615l0-90.5715 226.062 0 0-124.7715L231.3215 208.9185l0-91.638 226.062 0 0-181.71 112.2525 0 0 181.71 218.0385 0 0 91.638-218.0385 0 0 124.7715 218.0385 0L787.6745 424.2615l-187.155 0L837.989 834 837.989 834 837.989 834zM837.989 834"  horiz-adv-x="1024" />

    
    <glyph glyph-name="iconfontjikediancanicon20" unicode="&#58900;" d="M601.879542 280.816966l40.164768 0 0-39.908942-40.164768 0 0 39.908942ZM701.140243 280.816966l40.164768 0 0-39.908942-40.164768 0 0 39.908942ZM511.999488 832.354448c-246.99951 0-447.230857-200.231347-447.230857-447.230857 0-246.998487 200.23237-447.231881 447.230857-447.231881 246.99951 0 447.229834 200.233394 447.229834 447.231881C959.229323 632.123101 758.998999 832.354448 511.999488 832.354448zM789.144576 213.27875700000004c0 0-1.87572-36.32737-37.862329-41.443901L276.297278 171.83485599999995c0 0-28.481681 1.705851-34.109866 38.544875l-1.056052 218.816634 548.013215 0L789.144576 213.27875700000004zM789.144576 566.5752219999999l0-67.026556-548.013215 0.271176 1.056052 68.801992c5.884011 29.420053 34.280758 30.187533 34.280758 30.187533l473.279117 0C789.656229 594.716142 789.144576 566.5752219999999 789.144576 566.5752219999999zM651.254066 280.816966l40.164768 0 0-39.908942-40.164768 0 0 39.908942Z"  horiz-adv-x="1024" />

    
    <glyph glyph-name="yinxingqia" unicode="&#58926;" d="M627.73248 311.00928l56.34048 0c17.64864 0 32.01024 14.3616 32.01024 32.01024s-14.3616 32.01024-32.01024 32.01024l-56.34048 0c-17.65376 0-32.01536-14.3616-32.01536-32.01024S610.07872 311.00928 627.73248 311.00928zM233.344 182.9632l225.36704 0c17.64864 0 32.01024 14.3616 32.01024 32.01024 0 17.65376-14.3616 32.01024-32.01024 32.01024L233.344 246.98368c-17.64864 0-32.01024-14.3616-32.01024-32.01024C201.33376 197.3248 215.69536 182.9632 233.344 182.9632zM233.344 311.00928l281.70752 0c17.65376 0 32.01536 14.3616 32.01536 32.01024s-14.3616 32.01024-32.01536 32.01024L233.344 375.02976c-17.64864 0-32.01024-14.3616-32.01024-32.01024S215.69536 311.00928 233.344 311.00928zM850.54976 754.05824 174.45376 754.05824c-64.25088 0-116.52608-52.27008-116.52608-116.52096l0-507.06944c0-64.25088 52.2752-116.52096 116.52608-116.52096l676.096 0c64.25088 0 116.52096 52.27008 116.52096 116.52096L967.07072 637.53728C967.07072 701.78304 914.80064 754.05824 850.54976 754.05824zM121.95328 585.0368 121.95328 637.53728c0 28.94848 23.552 52.50048 52.50048 52.50048l676.096 0c28.94848 0 52.50048-23.552 52.50048-52.50048l0-52.50048L121.95328 585.0368zM903.05024 130.46272c0-28.94848-23.552-52.50048-52.50048-52.50048L174.45376 77.96224c-28.94848 0-52.50048 23.552-52.50048 52.50048L121.95328 521.0112l781.09696 0L903.05024 130.46272z"  horiz-adv-x="1025" />

    
    <glyph glyph-name="shanchu1" unicode="&#58931;" d="M907.618072 663.257647 744.713682 663.257647 744.713682 779.617048c0 12.852708-10.419786 23.272495-23.272495 23.272495L302.556765 802.889543c-12.852708 0-23.272495-10.418762-23.272495-23.272495l0-116.360425L116.380904 663.256623c-12.852708 0-23.272495-10.419786-23.272495-23.272495s10.418762-23.272495 23.272495-23.272495l791.237168 0c12.852708 0 23.272495 10.419786 23.272495 23.272495S920.469756 663.257647 907.618072 663.257647zM325.829259 756.345577l372.340458 0 0-93.08793L325.829259 663.257647 325.829259 756.345577zM791.257647 523.637015c-12.852708 0-23.272495-10.418762-23.272495-23.272495l0-488.712146L256.012799 11.652375 256.012799 500.364521c0 12.852708-10.418762 23.272495-23.272495 23.272495s-23.272495-10.418762-23.272495-23.272495l0-511.983617c0-12.852708 10.418762-23.272495 23.272495-23.272495l558.516318 0c12.852708 0 23.272495 10.419786 23.272495 23.272495L814.529118 500.364521C814.529118 513.217229 804.110355 523.637015 791.257647 523.637015zM442.189684 128.012799l0 372.351721c0 12.852708-10.418762 23.272495-23.272495 23.272495s-23.272495-10.418762-23.272495-23.272495l0-372.351721c0-12.852708 10.418762-23.272495 23.272495-23.272495S442.189684 115.160091 442.189684 128.012799zM628.353257 128.012799l0 372.351721c0 12.852708-10.419786 23.272495-23.272495 23.272495s-23.272495-10.418762-23.272495-23.272495l0-372.351721c0-12.852708 10.419786-23.272495 23.272495-23.272495S628.353257 115.160091 628.353257 128.012799z"  horiz-adv-x="1024" />

    
    <glyph glyph-name="qianbao" unicode="&#58894;" d="M800.768 829.632c-26.944 42.048-56.384 66.368-127.168 66.368-15.104 0-60.992 0-357.824-158.336l-122.816-64.384h701.312l-93.504 156.352zM453.376 737.28c180.608 91.648 216.256 94.72 220.224 94.72 45.504 0 55.68-9.536 72.704-36.032l35.136-58.688h-328.064zM730.176 302.72c-12.16-12.16-18.176-27.456-18.176-45.696 0-18.304 6.016-33.472 18.176-45.696 12.224-12.224 27.52-18.304 45.824-18.304 18.24 0 33.472 6.080 45.696 18.304 12.16 12.16 18.304 27.392 18.304 45.696 0 18.24-6.144 33.472-18.304 45.696-12.16 12.224-27.456 18.304-45.696 18.304-18.304 0.064-33.536-6.016-45.824-18.304zM1020.8 354.432h3.2v114.176c0 88.064-71.616 159.616-159.616 159.616l-704.768-0c-88 0-159.616-71.552-159.616-159.616v-436.992c0-88 71.616-159.616 159.616-159.616h704.768c88 0 159.616 71.616 159.616 159.616v77.056h-0.32v50.944h-269.888c-52.032 0-95.936 45.248-95.936 98.816 0 52.928 43.008 96 95.936 96h267.008zM753.792 418.432c-88.192 0-159.936-71.808-159.936-160 0-89.728 71.744-162.752 159.936-162.752h206.272v-64.064c0-52.736-42.944-95.616-95.68-95.616l-704.768-0c-52.672 0-95.68 42.88-95.68 95.616l-0 436.992c0 52.736 42.944 95.616 95.68 95.616h704.768c52.736 0 95.68-42.88 95.68-95.616v-50.176h-206.272z"  horiz-adv-x="1024" />

    
    <glyph glyph-name="zhifubaozhifu" unicode="&#58902;" d="M318.89700864 174.68885675c-13.85743929 0.42496797-103.74916779 6.33143637-102.01320334 85.77361692l-0.00232903 0c0.53091897 24.17076565 27.27244686 89.47141746 130.85977827 78.74127417 54.70906027-5.66545977 116.34800413-38.76986083 128.48112299-44.61811485 12.12962589-5.84825401 24.48163157-12.24023381 37.04554041-19.17477546-1.73247147-1.73247147-3.46727083-3.36015587-5.20090624-4.87606727-1.73130638-1.51707648-48.72924046-45.71720931-77.54321465-62.83583943C401.70516594 190.58264860999998 364.70386915 173.28355327999998 318.89700864 174.68885675zM934.29214435 193.88109710000003c-157.46159161 25.13713038-306.63340259 96.48513138-306.63340259 96.48513138 19.49844935 25.12898048 35.20711794 49.61294109 47.12367787 73.44489586 11.9142309 23.82962688 20.90841088 45.06054656 26.97322382 63.68926833 7.28732217 21.43117881 12.44282083 41.79353486 15.48978176 61.10104008l0.10478706 0 0 0.64734776c-0.03027171-0.21190201-0.07102237-0.43078883-0.10478706-0.64734776L565.91617479 488.60143161l0 72.14205042 190.43791986 0 0 31.20077938L565.91617479 591.94426027l0 74.74774243-50.04955193 0c-8.22807325 0-15.60155363-0.65200469-22.09599147-1.95601521-5.63402411-0.8639067-10.61837141-2.48693419-14.94954894-4.87141035-4.33583445-2.38447616-6.49909475-5.52458013-6.49909475-9.42613277l0-58.49301902L287.08381013 591.94542535l0-31.20077938 185.23701476 0 0-72.14205042L339.07889835 488.60259555l0-31.20077937 282.08540558 0c-0.87089266-3.46494179-2.81526499-9.53324771-5.85058304-18.19560277-3.03298901-8.66701198-7.3711525-19.3913344-13.00051854-32.17878699-5.63402411-12.78279566-12.78512355-26.86261589-21.45213668-42.24644551-8.66351901-15.37800875-19.27606841-31.08551339-31.84696206-47.12134884-6.06364899 2.16791723-11.91190301 4.33467051-17.54592598 6.49909476-5.63518805 2.16791723-11.05498112 4.33583445-16.2489014 6.49909475-12.99818951 5.63518805-26.76015787 11.48227811-41.27542386 17.55291193-14.51410205 6.06481294-29.8979328 11.69534407-46.1468342 16.8985782-16.24890141 5.19741326-33.25575965 9.63919872-51.02523051 13.32419243-17.76481394 3.68266581-36.18046862 5.95420501-55.24580011 6.82160469-19.49612032 0.86507179-38.88978375-1.51591253-58.16934513-7.14527857-19.27956139-5.63518805-36.8336384-13.86675427-52.64825799-24.70401252-15.81694862-10.83027229-28.71035221-24.04734976-38.6767178-39.64890339-9.96170866-15.60155363-15.1626149-32.92975673-15.59689671-51.99974514 0-22.09482752 4.55355847-41.48732587 13.65135929-58.16701611 9.09663687-16.68201927 21.45097159-30.54993749 37.04554041-41.59676985 15.60038969-11.04916025 33.90660039-19.39249835 54.92445525-25.02186552 21.01668978-5.63518805 43.43635513-8.45511111 67.26947499-8.45511112l10.40181248 0c1.29818851 0 2.38447616 0.22121586 3.24838286 0.6520047 9.09663687 0.4354469 20.58473699 1.40996153 34.44916224 2.92470898 13.8632613 1.52289849 30.00388381 5.20090624 48.42303147 11.04916024 18.41449074 5.85640391 39.08654877 14.29870706 61.09521806 26.97788075 25.05795811 14.4395867 93.91785984 69.54334322 93.91785984 69.54334322 138.30893795-61.44334279 228.37065273-98.84864967 313.17557589-117.29923413-83.44036921-121.60130389-223.4212352-201.36599325-382.0366427-201.36599325-255.71062898 0-463.00521358 207.29225557-463.00521358 463.00404963S256.29053497 847.00404963 512 847.00404963s463.00404963-207.29225557 463.00404963-463.00404963C975.00521358 316.24384967000003 960.44570397 251.88394781 934.29214435 193.88109710000003z"  horiz-adv-x="1024" />

    
    <glyph glyph-name="erweima" unicode="&#58930;" d="M804.14338266-71.55286581999997L804.14338266 11.000351089999981 719.77796362 11.000351089999981 719.77796362-71.61247802000003ZM930.06227629-71.61247802000003c20.65353868 0 37.55020173 16.89798865 37.55020173 37.55020173l0 45.06130308-80.85891488 0 0-82.55189261M386.8335425 757.00097321l0-247.83584002L138.99770247 509.16513319 138.99770247 757.00097321 386.8335425 757.00097321M431.89484427 839.61247802L93.93639939 839.61247802c-20.65221438 0-37.55020173-16.89798865-37.55020172-37.55020173l0-337.95712056c0-20.65353868 16.89798865-37.55020173 37.55020172-37.55020172l337.95712058 0c20.65221438 0 37.55020173 16.89798865 37.55020172 37.55020172L469.44372169 802.06227629C469.4450473 822.71448937 452.54705865 839.61247802 431.89484427 839.61247802L431.89484427 839.61247802zM262.91628463 633.0823910500001m-41.30575304 0a40.36499785 40.36499785 0 1 1 82.61150479 0 40.36499785 40.36499785 0 1 1-82.61150479 0ZM885.00097321 757.00097321l0-247.83584002L637.1664575 509.16513319 637.1664575 757.00097321 885.00097321 757.00097321M930.06227629 839.61247802L592.10515573 839.61247802c-20.65353868 0-37.55020173-16.89798865-37.55020172-37.55020173l0-337.95712056c0-20.65353868 16.89798865-37.55020173 37.55020172-37.55020172l337.95712056 0c20.65353868 0 37.55020173 16.89798865 37.55020173 37.55020172L967.61247802 802.06227629C967.61380233 822.71448937 950.71581367 839.61247802 930.06227629 839.61247802L930.06227629 839.61247802zM761.08371537 633.0823910500001m-41.30575306 0a40.36499785 40.36499785 0 1 1 82.6115048 0 40.36499785 40.36499785 0 1 1-82.6115048 0ZM386.8335425 258.83486681l0-247.83584002L138.99770247 10.999026790000016 138.99770247 258.83486681 386.8335425 258.83486681M431.89484427 341.44637162000004L93.93639939 341.44637162000004c-20.65221438 0-37.55020173-16.89798865-37.55020172-37.55020174l0-337.95712056c0-20.65353868 16.89798865-37.55020173 37.55020172-37.55020173l337.95712058 0c20.65353868 0 37.55020173 16.89798865 37.55020172 37.55020173L469.44372169 303.89616859C469.4450473 324.54838295 452.54705865 341.44637162000004 431.89484427 341.44637162000004L431.89484427 341.44637162000004zM262.91628463 134.91760895000004m-41.30575304 0a40.36499785 40.36499785 0 1 1 82.61150479 0 40.36499785 40.36499785 0 1 1-82.61150479 0ZM930.06227629 341.44637162000004l-46.05880824 0 0-165.22300961-82.61150481 0L801.39196194 341.44637162000004 592.10515573 341.44637162000004c-20.65353868 0-37.55020173-16.89798865-37.55020172-37.55020174l0-337.95712056c0-20.65353868 16.89798865-37.55020173 37.55020172-37.55020173l45.06130308 0 0 82.6115048 0 82.61150482 0 82.6115048 82.61150481 0 0-82.6115048L967.61380233 93.61185721000004l0 210.28431267C967.61380233 324.54838295 950.71581367 341.44637162000004 930.06227629 341.44637162000004z"  horiz-adv-x="1024" />

    
    <glyph glyph-name="gerenziliao" unicode="&#59096;" d="M936.343591 379.668345l-34.582633 31.145347c-7.142677 6.432503-16.390295 7.80885-20.654412 3.072989L633.688503 139.158642c-4.264117-4.734838-26.524097-76.615958-24.545022-78.398558l9.583263-8.630564c1.979074-1.782599 71.146387 27.854395 75.410504 32.590256l247.417019 274.727015C945.819406 364.182652 943.486268 373.235842 936.343591 379.668345zM904.588353 191.761698c-7.154957 15.372106-25.417903 22.031782-40.786938 14.876826-15.371082-7.154957-22.030759-25.415856-14.876826-40.786938 16.758686-36.004005 26.66429-73.866335 27.891234-106.613156 1.107217-29.53057-5.26491-42.863227-7.969509-46.186925L187.94144 13.051503c-2.216481 2.324952-7.909134 11.867282-9.488095 33.550117-1.809205 24.828478 2.488681 55.254441 12.099572 85.672218 16.801664 53.17099 90.829681 226.65516 338.002131 226.65516 66.163909 0 125.669164-13.694907 176.862103-40.704051 14.993482-7.913227 33.564443-2.170432 41.476647 12.82612 7.91118 14.995529 2.169409 33.565467-12.82612 41.476647-32.119535 16.946974-66.818825 29.426193-103.801111 37.377282 22.349007 11.072173 42.987047 25.830295 61.139475 43.9817 43.774993 43.774993 67.884087 101.977579 67.884087 163.885558s-24.109094 120.109542-67.884087 163.884534-101.976556 67.883063-163.884534 67.883063c-61.907978 0-120.109542-24.108071-163.884534-67.883063s-67.883063-101.977579-67.883063-163.884534 24.108071-120.110565 67.883063-163.885558c18.075681-18.075681 38.616506-32.787754 60.85602-43.843554-105.47831-21.965268-173.46882-75.264171-214.538191-121.695666-68.790736-77.772294-93.300966-169.959903-93.300966-230.302223 0-27.14422 4.76349-50.853202 13.776771-68.564585 12.233626-24.040533 32.841989-37.82856 56.540737-37.82856L870.13875-48.347892c20.912285 0 39.116903 10.488889 51.259454 29.53364 17.503653 27.455305 18.35095 65.759703 15.977903 93.057419C934.085154 112.113683 922.747945 152.750195 904.588353 191.761698zM357.150236 617.772254c0 93.942579 76.42767 170.370249 170.370249 170.370249s170.370249-76.42767 170.370249-170.370249c0-93.942579-76.428693-170.370249-170.370249-170.370249S357.150236 523.829675 357.150236 617.772254z"  horiz-adv-x="1024" />

    
    <glyph glyph-name="tongzhi1" unicode="&#58909;" d="M556.8 780.8 320 640l0-448 236.8-140.8c44.8-25.6 83.2-6.4 83.2 44.8l0 640C640 787.2 601.6 812.8 556.8 780.8zM64 544l0-256C64 236.8 108.8 192 160 192L256 192 256 640 160 640C108.8 640 64 595.2 64 544zM928 448l-128 0C780.8 448 768 435.2 768 416 768 396.8 780.8 384 800 384l128 0C947.2 384 960 396.8 960 416 960 435.2 947.2 448 928 448zM908.8 121.6l-108.8 64c-12.8 6.4-32 6.4-44.8-12.8-6.4-12.8-6.4-32 12.8-44.8l108.8-64c12.8-6.4 32-6.4 44.8 12.8C928 89.6 921.6 115.2 908.8 121.6zM793.6 646.4l108.8 64c12.8 6.4 19.2 25.6 12.8 44.8C908.8 768 889.6 774.4 876.8 768l-108.8-64c-12.8-6.4-19.2-25.6-12.8-44.8C761.6 646.4 780.8 640 793.6 646.4z"  horiz-adv-x="1024" />

    
    <glyph glyph-name="tubiao07" unicode="&#58895;" d="M77.913043 678.956522l0-422.956522c0-83.478261 66.782609-150.26087 150.26087-150.26087l222.608696 0 5.565217-189.217391 222.608696 189.217391 250.434783 0c83.478261 0 150.26087 66.782609 150.26087 150.26087L1079.652174 678.956522c0 83.478261-66.782609 150.26087-150.26087 150.26087L228.173913 829.217391C144.695652 823.652174 77.913043 756.869565 77.913043 678.956522L77.913043 678.956522zM723.478261 439.652174c0 38.956522 33.391304 72.347826 72.347826 72.347826 38.956522 0 72.347826-33.391304 72.347826-72.347826S834.782609 372.869565 795.826087 372.869565C756.869565 372.869565 723.478261 400.695652 723.478261 439.652174L723.478261 439.652174zM506.434783 439.652174c0 38.956522 33.391304 72.347826 72.347826 72.347826 38.956522 0 72.347826-33.391304 72.347826-72.347826s-33.391304-72.347826-72.347826-72.347826C539.826087 372.869565 506.434783 400.695652 506.434783 439.652174L506.434783 439.652174zM294.956522 439.652174c0 38.956522 33.391304 72.347826 72.347826 72.347826 38.956522 0 72.347826-33.391304 72.347826-72.347826S406.26087 372.869565 367.304348 372.869565C328.347826 372.869565 294.956522 400.695652 294.956522 439.652174L294.956522 439.652174zM294.956522 439.652174"  horiz-adv-x="1164" />

    
    <glyph glyph-name="zhifubao1" unicode="&#58975;" d="M230.404452 319.463513C218.3168 309.735513 205.360974 295.533078 201.598887 277.479513 196.478887 252.81447 200.530365 221.938643 224.327235 197.718817 253.155061 168.35673 296.964452 160.320557 315.886191 158.940383 367.286539 155.222817 422.070539 180.711513 463.364452 209.784209 479.548104 221.204035 507.262887 244.13273 533.753322 279.505252 474.383583 310.15847 400.277148 344.061774 321.050713 340.744904 280.580452 339.053078 251.5968 330.66073 230.404452 319.463513ZM983.262609 183.919304C1009.463652 245.426087 1024 313.032348 1024 384 1024 666.312348 794.334609 896 512 896 229.665391 896 0 666.312348 0 384 0 101.665391 229.665391-128 512-128 682.384696-128 833.491478-44.27687 926.630957 84.123826 838.633739 127.866435 693.604174 199.858087 604.271304 243.422609 561.641739 194.82713 498.621217 146.120348 427.430957 124.928 382.70887 111.638261 342.394435 106.562783 300.232348 115.177739 258.493217 123.725913 227.750957 143.270957 209.830957 162.860522 200.704 172.855652 190.21913 185.566609 182.628174 200.681739 183.340522 198.767304 183.830261 197.632 183.830261 197.632 183.830261 197.632 179.46713 205.156174 176.128 217.132522 174.413913 222.920348 173.256348 228.953043 172.78887 235.27513 172.432696 239.415652 172.343652 243.778783 172.588522 248.32 172.210087 256.022261 172.521739 264.102957 174.258087 272.384 178.44313 292.61913 187.080348 316.193391 209.430261 338.075826 258.493217 386.114783 324.207304 388.697043 358.244174 388.496696 408.665043 388.207304 496.283826 366.146783 570.056348 340.057043 590.491826 383.577043 603.603478 430.124522 612.062609 461.156174L305.307826 461.156174 305.307826 494.32487 462.825739 494.32487 462.825739 560.662261 272.13913 560.662261 272.13913 593.830957 462.825739 593.830957 462.825739 660.146087C462.825739 669.250783 464.62887 676.730435 479.410087 676.730435L554.028522 676.730435 554.028522 593.830957 761.321739 593.830957 761.321739 560.662261 554.028522 560.662261 554.028522 494.32487 719.849739 494.32487C719.849739 494.32487 703.198609 401.497043 651.130435 310.00487 766.686609 268.733217 929.257739 205.156174 983.262609 183.919304Z"  horiz-adv-x="1024" />

    
    <glyph glyph-name="weixin-copy" unicode="&#58962;" d="M571.648 384.06c-10.257 0-20.517-9.525-20.517-21.25 0-9.527 10.255-19.053 20.517-19.053 15.393 0 26.385 9.527 26.385 19.053 0 11.724-10.99 21.25-26.385 21.25v0zM504.225 483c16.123 0 26.385 10.257 26.385 25.651 0 16.123-10.261 25.649-26.385 25.649-15.39 0-30.048-9.527-30.048-25.649-0.001-15.396 14.659-25.651 30.048-25.651v0zM512.287 833.508c-248.427 0-449.813-201.386-449.813-449.813 0-248.425 201.386-449.812 449.813-449.812 248.425 0 449.812 201.386 449.812 449.812 0.001 248.427-201.385 449.813-449.812 449.813v0zM427.275 269.735c-27.119 0-46.906 4.394-72.556 11.725l-74.019-37.38 21.257 63.031c-52.035 36.64-82.818 82.811-82.818 139.243 0 99.67 93.808 175.889 208.137 175.889 101.135 0 191.279-60.097 208.867-145.113-7.328 1.469-13.926 2.199-19.788 2.199-99.67 0-176.619-74.75-176.619-164.894 0-15.388 2.199-29.313 5.863-43.972-5.863-0.728-12.461-0.728-18.324-0.728v0zM732.882 197.91499999999996l14.655-52.77-55.697 31.512c-21.252-4.394-41.773-10.99-63.025-10.99-98.206 0-175.889 67.422-175.889 150.968 0 83.547 77.685 150.97 175.889 150.97 93.072 0 176.619-67.423 176.619-150.97 0-46.9-31.512-88.673-72.552-118.721v0zM359.117 534.3c-15.39 0-31.512-9.527-31.512-25.649 0-15.395 16.122-25.656 31.512-25.656 14.66 0 26.385 10.261 26.385 25.656 0 16.122-11.725 25.649-26.385 25.649v0zM686.712 384.06c-10.995 0-20.522-9.525-20.522-21.25 0-9.527 9.527-19.053 20.522-19.053 14.655 0 25.649 9.527 25.649 19.053 0 11.724-10.994 21.25-25.649 21.25v0zM686.712 384.06z"  horiz-adv-x="1024" />

    
    <glyph glyph-name="eth1" unicode="&#58913;" d="M514.048 281.6l-178.176 106.496 178.176 296.96zM514.048 111.616l-174.080 249.856 174.080-104.448zM520.192 281.6l178.176 106.496-178.176 296.96zM522.24 111.616l176.128 249.856-176.128-104.448z"  horiz-adv-x="1024" />

    
    <glyph glyph-name="wodeqianbao" unicode="&#58946;" d="M840.343655 546.893974l-27.863604 0 0 100.252285c0 30.971385-25.197892 56.169277-56.171324 56.169277L605.645308 703.315536l-19.203364 30.931476c-9.496282 15.275915-27.768437 20.521383-41.597397 11.938913l-69.061912-42.871413-262.416642 0c-1.456165 0-2.867304-0.182149-4.227278-0.497327-21.928429-0.335644-42.249243-10.832719-57.32152-29.659507-14.343683-17.916045-22.242584-41.49302-22.242584-66.389036 0-12.885472 2.131547-25.408693 6.161327-36.985356-0.394996-1.514493-0.627287-3.095501-0.627287-4.733814l0-511.199775c0-30.972409 25.197892-56.170301 56.169277-56.170301l649.066749 0c30.972409 0 56.169277 25.197892 56.169277 56.170301L896.513956 490.723673C896.512932 521.696082 871.316064 546.893974 840.343655 546.893974zM859.066065 246.928135l-74.087369 0c-21.157879 0-38.370913 17.207917-38.370913 38.359656 0 21.148669 17.213034 38.353516 38.370913 38.353516l74.087369 0L859.066065 246.928135zM756.308727 665.868669c10.32516 0 18.724457-8.399297 18.724457-18.72241l0-100.252285-72.281233 0-73.861218 118.974695L756.308727 665.868669zM557.456796 709.94042l101.219309-163.046447-344.526731 0c-2.077312 0.795109-4.324492 1.249457-6.681166 1.249457l-10.658757 0L557.456796 709.94042zM181.048961 649.75569c8.070816 10.080589 18.430768 15.632025 29.17139 15.632025l97.248881 0c1.433652 0 2.824325 0.176009 4.16588 0.480954l103.823624 0L227.114113 548.953889c-0.407276-0.252757-0.788969-0.532119-1.169639-0.810459l-15.725146 0c-10.741645 0-21.100574 5.551436-29.170366 15.632025-9.046027 11.30037-14.028505 26.569122-14.028505 42.993187C167.020456 623.189637 172.001911 638.456343 181.048961 649.75569zM840.343655 35.127288 191.276906 35.127288c-10.323113 0-18.72241 8.399297-18.72241 18.723434L172.554496 510.006855c1.459235-0.36532 2.986007-0.558725 4.558829-0.558725l663.23033 0c10.324136 0 18.72241-8.399297 18.72241-18.723434l0-129.635499-74.087369 0c-41.806151 0-75.81778-34.003442-75.81778-75.800383 0-41.800012 34.011628-75.806523 75.81778-75.806523l74.087369 0 0-155.630546C859.066065 43.526585 850.667791 35.127288 840.343655 35.127288zM798.753421 267.60199c10.042727 0 18.185174 8.147564 18.185174 18.198477 0 10.057053-8.141424 18.204617-18.185174 18.204617-10.070356 0-18.21178-8.147564-18.21178-18.204617C780.542664 275.749554 788.684088 267.60199 798.753421 267.60199z"  horiz-adv-x="1024" />

    
    <glyph glyph-name="huishan" unicode="&#58924;" d="M822.208111 757.281635 347.597673 757.281635c-27.308973 0-64.513316-16.943904-82.691327-37.84698L22.312168 440.490595c-27.070542-31.126928-27.132964-81.782631 0-112.981191l242.594177-278.94406c18.121729-20.837584 55.200206-37.845956 82.691327-37.845956l474.610438 0c110.278639 0 199.805652 89.353051 199.805652 199.574385L1022.013763 557.70725C1022.013763 667.97054 932.557358 757.281635 822.208111 757.281635zM979.034902 210.29275c0-41.809221-16.314571-81.125669-45.939285-110.708428-29.631878-29.590945-69.012793-45.887097-110.887506-45.887097L347.597673 53.697225c-14.956643 0-40.322357 11.643178-50.260707 23.071462L54.742788 355.71377c-13.105482 15.068184-13.105482 41.504276 0 56.573483l242.594177 278.94406c9.93835 11.428284 35.304064 23.071462 50.260707 23.071462l474.610438 0c41.905412 0 81.294514-16.290011 110.913089-45.870724 29.608342-29.569456 45.913703-68.893067 45.913703-110.725824L979.034902 210.29275zM735.477794 550.003801 592.190367 406.716374 448.90294 550.003801 418.736896 519.837758 562.024324 376.550331 418.736896 233.263927 448.90294 203.097884 592.190367 346.385311 735.477794 203.097884 765.642814 233.263927 622.35641 376.550331 765.642814 519.837758Z"  horiz-adv-x="1024" />

    
    <glyph glyph-name="shouji" unicode="&#58919;" d="M720.129736-63.855074l-416.260495 0c-61.306274 0-111.005186 50.116421-111.005186 111.964024L192.864054 719.89105c0 61.847603 49.697889 111.964024 111.005186 111.964024l416.260495 0c61.306274 0 111.005186-50.116421 111.005186-111.964024l0-671.7821C831.133899-13.739676 781.43601-63.855074 720.129736-63.855074L720.129736-63.855074zM775.623631 719.89105c0 30.905894-24.848944 55.982012-55.493895 55.982012l-416.260495 0c-30.644951 0-55.502082-25.076118-55.502082-55.982012l0-27.991518 527.256472 0L775.623631 719.89105 775.623631 719.89105zM775.623631 635.918543 248.367159 635.918543 248.367159 188.933279l527.256472 0L775.623631 635.918543 775.623631 635.918543zM775.623631 132.951267 248.367159 132.951267l0-84.842317c0-30.925337 24.857131-55.982012 55.502082-55.982012l416.260495 0c30.644951 0 55.493895 25.056676 55.493895 55.982012L775.623631 132.951267 775.623631 132.951267zM512.001535 20.117432c-22.980387 0-41.614793 18.797112-41.614793 41.98523 0 23.190165 18.634406 41.989323 41.614793 41.989323 22.979364 0 41.612747-18.797112 41.612747-41.989323C553.614282 38.914544 534.980899 20.117432 512.001535 20.117432L512.001535 20.117432z"  horiz-adv-x="1024" />

    
    <glyph glyph-name="wode2" unicode="&#59015;" d="M904.523-63.997 137.407-63.997 87.005-63.997l0.9 8.375c17.437 161.82 131.197 307.689 283.077 362.914l4.633 1.69-4.147 2.655c-77.647 49.72-124 132.545-124 221.594 0 146.79 127.81 275.557 273.492 275.557 145.695 0 273.489-128.767 273.489-275.587 0-89.04-46.36-171.86-124-221.599l-4.145-2.655 4.625-1.695c151.885-55.24 265.639-201.085 283.074-362.914l0.9-8.335L904.523-63.997 904.523-63.997z"  horiz-adv-x="1024" />

    
    <glyph glyph-name="warning" unicode="&#58897;" d="M959.256 384c0 247.013-200.243 447.256-447.256 447.256s-447.256-200.243-447.256-447.256c0-247.013 200.243-447.256 447.256-447.256 247.013 0 447.256 200.243 447.256 447.256v0 0 0 0 0zM117.362 384c0 217.953 176.685 394.638 394.638 394.638s394.638-176.685 394.638-394.638c0-217.953-176.685-394.638-394.638-394.638-217.953 0-394.638 176.685-394.638 394.638v0 0 0 0 0zM484.458 296.44c0-23.021 10.551-34.531 31.653-34.531 21.102 0 31.653 11.51 31.653 34.531v319.41c0 23.021-10.551 34.531-31.653 34.531-21.102 0-31.653-11.51-31.653-34.531v-319.41zM478.702 155.439c1.918-23.021 14.388-34.531 37.408-34.531 23.021 0 35.49 11.51 37.408 34.531-1.918 23.021-14.388 35.49-37.408 37.408-23.021-1.918-35.49-14.388-37.408-37.408v0z"  horiz-adv-x="1024" />

    
    <glyph glyph-name="guanyuwomen1" unicode="&#59052;" d="M569.338916 306.225659c-13.039991-12.44852-22.197558-20.222577-28.306696-25.151843 2.984984 16.138562 10.761088 48.136324 29.491685 111.146403 18.646686 62.419631 20.25123 73.318866 20.25123 78.670757 0 9.350972-3.886517 17.632589-10.674107 23.350824-15.240099 12.562107-42.111097 10.082636-74.560136-8.281617-18.082844-10.140964-37.291324-26.704199-58.754149-50.251497l-11.18576-12.44852 37.126572-28.617781 9.489118 9.380648c10.338463 10.026354 17.349133 16.562211 22.027689 20.927635-28.338419-93.26208-42.138726-151.228283-42.138726-177.170119 0-11.775184 3.409656-21.550829 10.310833-28.956495 6.957459-7.606235 16.730033-11.576663 27.910677-11.576663 10.957563 0 23.491017 4.225231 38.731116 12.872169 13.745049 7.800663 34.364669 24.843828 63.205531 51.997258l11.717879 11.210319-33.742499 32.871665L569.338916 306.225659 569.338916 306.225659 569.338916 306.225659zM922.611845 558.744883c-22.505573 53.292764-54.900378 101.232612-95.881744 142.188396-41.039695 41.097-88.896656 73.4038-141.992945 95.993285-110.35641 46.644343-237.842966 46.644343-348.257705 0-53.123918-22.589484-100.893898-54.898331-141.988852-95.993285-41.041742-41.039695-73.434499-89.037872-95.855138-142.188396-23.267936-55.348586-35.154661-113.879654-35.154661-174.383656 0-60.445674 11.831466-118.976742 35.071773-174.269046 22.447245-53.207829 54.841026-101.091396 95.877651-142.30096 40.986483-41.038672 88.783069-73.401754 141.993968-95.937003 55.263651-23.406083 113.794719-35.123962 174.099177-35.123962 60.362786 0 118.866225 11.717879 174.159552 35.181267 53.208852 22.534226 101.006462 54.841026 141.992945 95.879698 41.036625 41.151235 73.375148 89.092108 95.851045 142.330636 23.321148 55.264675 35.098379 113.796766 35.098379 174.241416C957.680549 444.865229 945.907411 503.397321 922.611845 558.744883L922.611845 558.744883 922.611845 558.744883zM900.725372 384.361227c0-215.394698-174.975127-390.593929-390.141628-390.593929-215.113289 0-390.087393 175.199231-390.087393 390.593929 0 215.47861 174.974104 390.650211 390.087393 390.650211C725.751269 775.012462 900.725372 599.84086 900.725372 384.361227L900.725372 384.361227 900.725372 384.361227zM557.705971 615.839229c-8.450463-9.295714-12.788258-20.561291-12.788258-33.5757 0-10.70276 3.462868-20.025079 10.30981-27.265994 6.958482-7.350408 15.969717-11.125385 26.251897-11.125385 8.31027 0 20.676925 2.534729 31.996738 15.125489 8.844435 9.518794 13.294794 20.982894 13.294794 33.743522 0 10.451026-3.604084 19.6045-10.479679 26.704199C601.252767 634.936169 573.876256 633.27432 557.705971 615.839229L557.705971 615.839229 557.705971 615.839229z"  horiz-adv-x="1024" />

    
    <glyph glyph-name="xiangshang2" unicode="&#58917;" d="M838.116 163.221 877.7 202.805 511.979 568.451 146.3 202.805 185.883 163.221 512.003 489.348Z"  horiz-adv-x="1024" />

    
    <glyph glyph-name="shenhechenggong01" unicode="&#58949;" d="M516.057409 833.580369c-248.198825 0-449.467805-201.231117-449.467805-449.467805 0-248.238734 201.267956-449.454502 449.467805-449.454502 248.226454 0 449.469851 201.215768 449.469851 449.454502C965.527261 632.349251 764.283864 833.580369 516.057409 833.580369M803.160289 502.496811 487.608473 186.227658c-9.05933-9.119705-27.006074-16.568351-39.901779-16.568351L420.48061 169.659307c-12.892635 0-30.842449 7.472182-39.926338 16.568351L231.984538 335.516776c-9.131985 9.109472-9.084912 24.00574 0.024559 33.112142l58.46046 58.473763c9.107425 9.121751 23.978111 9.121751 33.112142 0.024559l94.918813-94.736665c9.131985-9.097192 24.00267-9.084912 33.087583 0.024559l260.191974 260.814144c9.109472 9.094122 23.980157 9.157567 33.112142 0.060375l58.193377-57.753355C812.219619 526.464689 812.266691 511.619586 803.160289 502.496811"  horiz-adv-x="1024" />

    
    <glyph glyph-name="saoma" unicode="&#58916;" d="M129.70666667 820.90666667h191.14666666v-109.22666667H211.62666667c-16.384 0-27.30666667-10.92266667-27.30666667-27.30666667v-109.22666666H75.09333333V766.29333333c0 30.03733333 24.576 54.61333333 54.61333334 54.61333334zM948.90666667 766.29333333v-191.14666666h-109.22666667V684.37333333c0 16.384-10.92266667 27.30666667-27.30666667 27.30666667h-109.22666666V820.90666667h191.14666666c30.03733333 0 54.61333333-24.576 54.61333334-54.61333334zM75.09333333 438.61333333h873.81333334v-109.22666666H75.09333333zM184.32 110.93333332999998c0-30.03733333 24.576-54.61333333 54.61333333-54.61333333h81.92v-109.22666667h-81.92c-90.112 0-163.84 73.728-163.84 163.84v81.92h109.22666667v-81.92zM948.90666667 192.85333333000005v-81.92c0-90.112-73.728-163.84-163.84-163.84h-81.92v109.22666667h81.92c30.03733333 0 54.61333333 24.576 54.61333333 54.61333333v81.92h109.22666667z"  horiz-adv-x="1024" />

    
    <glyph glyph-name="dianhua1" unicode="&#58884;" d="M788.103 292.465c-22.673 4.217-65.147-34.284-65.147-34.284 121.434-76.696 121.127-169.835 121.127-169.835s27.622 13.812 42.108 37.525c14.483 23.712 19.432 51.702-15.767 100.715-35.262 49.075-59.585 61.541-82.321 65.88zM335.314 688.268c-22.948-2.476-52.313-51.794-52.313-51.794 138.575-37.86 165.558-126.994 165.558-126.994s23.497 30.312 30.432 57.202c6.907 26.86 2.293 46.14-45.742 82.747-48.004 36.608-74.955 41.375-97.935 38.839zM511.138 828.187c-246.41 0-446.892-199.17-446.892-443.99 0-244.76 200.483-443.928 446.892-443.928 110.615 0 211.331 40.763 289.433 107.193 8.373 1.65 30.924 8.19 26.035 31.29-5.93 28.357-50.052 119.843-117.888 160.056 0 0-25.605 15.157-47.975-12.468 0 0-34.955-12.527-111.316 61.175-76.363 73.765-145.481 129.683-120.487 204.76 0 0 11.183 40.151-82.991 93.414-94.146 53.352-101.022 19.495-105.666 5.651-4.583-13.842-30.617-65.544-11.184-115.901 15.828-41.007 66.858-145.206 216.984-287.416 125.985-119.172 203.66-165.066 263.857-166.35-59.035-32.208-126.75-50.724-198.802-50.724-229.482 0-416.183 185.417-416.183 413.25 0 227.89 186.701 413.309 416.183 413.309 229.48 0 416.184-185.42 416.184-413.31 0-2.506-0.368-4.95-0.43-7.455h30.74c0.061 2.506 0.428 4.95 0.428 7.456 0 244.818-200.513 443.988-446.922 443.988z"  horiz-adv-x="1024" />

    
    <glyph glyph-name="yinlian" unicode="&#58955;" d="M649.216 431.616c6.656 3.072 11.776 9.728 13.312 17.92 2.048 8.704-1.024 15.36-7.168 17.92-0.512 0-17.408 1.536-17.408 1.536l-3.072 0.512v-3.072l-8.192-35.328-0.512-1.536h4.608c6.144-1.024 12.8-0.512 18.432 2.048z m4.096-110.592l-6.144-20.48s6.656 3.072 10.752 4.096c4.096 1.024 9.728 1.536 9.728 1.536l4.608 14.848h-18.944z m53.76 59.904c2.56 0 7.68 1.536 9.728 4.608 1.024 1.536 2.048 3.584 3.072 6.144 1.024 3.072 1.536 6.656 2.56 9.728 0.512 2.56 1.024 4.608 1.536 6.656 0.512 7.68-2.048 12.288-7.168 12.288-7.68 0-10.752-9.728-13.824-20.992-1.024-4.096-1.536-7.68-1.536-11.264 0-7.168 4.608-7.168 5.632-7.168z m-247.808 1.024c2.56 0 5.12 1.536 7.168 4.608 3.072 4.096 5.12 13.824 5.632 16.384 2.56 11.776 2.56 18.944-4.096 18.944-7.68 0-10.752-9.728-13.312-20.992-1.024-4.096-1.536-7.68-1.536-11.264 0.512-7.68 5.12-7.68 6.144-7.68z m169.984-140.288h18.432l5.12 17.92h-18.432l-5.12-17.92z m8.704 28.16s7.168 3.584 10.752 4.608c3.584 1.024 9.728 1.536 9.728 1.536l4.608 14.848h-18.432l-6.656-20.992z m-66.56 19.968l2.56 7.168h-27.136l-1.536-7.168h22.016c3.072 0 4.096-0.512 4.096 0z m10.24 30.72h-29.184l-2.56-11.776c2.56 1.024 6.144 2.048 9.728 2.56 2.56 0.512 19.968 0.512 19.968 0.512l2.048 8.704z m-46.08-31.232l0.512 1.024-0.512-1.024z m-3.584-13.824l-9.728-31.744c-1.024-3.072-1.536-4.608-0.512-5.632 0.512-0.512 1.024-1.024 2.048-1.536l9.216 38.912h-1.024z m328.192 335.872h-170.496c-2.048 0.512-4.096 0.512-7.168 0.512H455.68c-2.048 0-4.096 0-5.632-0.512h-185.856c-27.648 0-55.296-22.528-61.44-50.176l-91.648-393.728c-6.144-27.648 10.752-50.176 38.4-50.176h197.12c2.048 0 4.096 0 5.632 0.512h194.048c-27.648 0-44.544 22.528-38.4 50.176l12.288 51.712h-2.048c-5.12 0-9.216 0-11.776 0.512-2.56 0-5.12 0-7.168 1.536-1.536 1.536-4.096 3.072-4.096 5.12 0 1.536 1.024 4.608 2.048 8.704l30.72 101.888h19.456l7.168 30.208c-3.584 0-7.168 0-12.8-0.512l-0.512 1.024c1.024 4.608 2.048 8.704 3.072 13.312l1.536 6.144c2.048 9.216 4.096 20.48 4.608 23.552 0 2.048 1.024 7.168-4.608 7.168-2.56 0-5.12-1.024-7.68-2.048-1.536-5.12-4.096-18.944-5.632-25.6-2.56-13.312-3.072-14.848-4.096-21.504l-1.024-1.024c-10.24 0-13.824 0-25.6-0.512l-0.512 1.024c2.048 8.192 4.096 16.384 5.632 24.064 5.12 21.504 6.144 30.208 7.168 40.96l1.024 0.512c11.264 1.536 14.336 2.048 26.624 4.608l1.024-1.024-1.536-7.168c2.048 1.024 4.096 2.56 6.144 3.584 5.632 2.56 12.288 3.584 15.872 3.584 2.56 0 5.12-0.512 7.168-1.024l29.184 125.44c5.632 25.088 28.672 45.568 53.248 49.664h9.216c-24.576-4.096-47.616-24.576-53.248-49.664l-31.232-133.632c1.536-5.12 0-12.288-3.072-24.576l-1.536-7.168c-3.072-14.848-3.584-17.92-5.632-28.16l-1.024-1.024h-3.072l-8.192-35.328 3.072 1.536c5.12 1.536 15.872 3.584 15.872 3.584h35.328l-12.288-40.448c-2.048-7.168-4.608-11.264-6.144-13.312-1.536-2.048-3.072-4.096-6.144-5.632-3.072-1.536-5.632-2.56-8.192-2.56s-6.144-0.512-10.752-0.512h-24.576l-8.704-38.4 7.168 0.512-5.12-17.408h-6.144l-12.288-51.712c-6.656-27.648 10.752-50.176 38.4-50.176h198.656c24.576 4.096 47.104 24.576 53.248 49.152l91.648 393.728c6.656 28.16-10.752 50.688-37.888 50.688zM273.408 375.296c-8.704-5.12-22.016-8.192-35.84-8.192-10.752 0-29.696 1.536-36.352 13.312-2.048 3.584-3.072 8.192-3.072 13.312l2.56 17.92 1.536 5.632 14.848 64.512s0.512 3.584 1.024 4.096c0.512-0.512 5.12-0.512 33.28-0.512v-1.024c-2.56-7.68-16.896-65.024-16.896-65.024l-2.56-17.408v-3.072c1.024-8.704 6.144-12.8 14.848-12.8 5.632 0 10.24 1.536 14.336 5.12 7.168 5.632 9.216 14.848 12.288 27.648 0 0 13.824 62.976 14.336 66.56 2.048-0.512 7.68-0.512 28.16-0.512v-1.024c-2.56-7.68-17.408-67.584-17.408-67.584l-1.536-6.144c-4.096-11.776-8.192-25.6-23.552-34.816z m103.936 28.672l-1.536-7.168c-3.072-14.848-3.584-17.92-5.632-28.16l-1.024-1.024h-19.968l-46.592-199.168c-6.656-27.648 10.752-50.176 38.4-50.176h-10.752c-27.648 0-44.544 22.528-38.4 50.176l57.856 249.344c-0.512 0-1.024 0.512-2.048 0.512-2.56 0-5.12-1.024-7.168-2.048-1.536-5.12-4.096-18.944-5.632-25.6-2.56-13.312-3.072-14.848-4.096-21.504l-1.024-1.024c-10.24 0-13.824 0-25.6-0.512l-0.512 1.024c2.048 8.192 4.096 16.384 5.632 24.064 5.12 21.504 6.144 30.208 7.68 40.96l1.024 0.512c11.264 1.536 14.336 2.048 26.624 4.608l1.024-1.024-2.048-7.168c2.048 1.024 4.096 2.56 6.144 3.584 1.536 0.512 2.56 1.024 4.096 1.536l29.696 126.464c5.632 25.088 28.672 45.568 53.248 49.664h10.752c-24.576-4.096-47.616-24.576-53.248-49.664l-29.184-124.416h0.512c5.632 0 11.264-1.536 13.824-7.68 2.56-5.632 1.024-12.8-2.048-26.112z m41.472 4.096c-1.024-4.608-2.048-9.728-3.072-14.336-2.048-9.728-3.072-13.824-3.584-16.384-0.512-2.56-0.512-4.096-1.536-9.216l-0.512-0.512-0.512-0.512h-13.824c-3.584 0-7.168 0-12.8-0.512l-0.512 0.512-0.512 0.512c1.536 5.632 2.56 7.68 3.072 9.728 0.512 2.048 1.536 4.096 2.56 9.728 1.536 7.68 2.56 12.8 3.584 17.408 0.512 4.608 1.024 8.192 2.048 12.8l0.512 0.512 0.512 0.512c6.144 1.024 9.728 1.536 13.824 2.048 4.096 0.512 7.68 1.536 13.824 2.56v-1.024c-0.512-4.096-2.048-8.704-3.072-13.824z m1.536 20.48c-6.656-4.608-16.384-5.632-22.016-2.56-5.632 3.072-4.608 9.728 2.048 14.336 6.656 4.608 16.384 5.632 22.016 2.048 5.12-3.072 4.096-9.216-2.048-13.824z m8.704-27.136c2.048 9.216 5.632 18.432 13.312 25.6 10.752 9.728 24.064 10.24 29.696 10.24 9.728 0 18.432-2.048 23.552-8.704 3.584-4.608 6.144-11.264 2.56-26.624-1.024-4.608-4.096-15.872-10.752-23.04-8.704-9.216-20.48-12.288-31.744-12.288-4.608 0-11.264 0.512-15.872 2.56-15.36 5.632-12.8 22.528-10.752 32.256z m77.312-114.176h-25.088l-4.096-12.8h25.6l-4.608-15.36h-25.6l-6.144-20.48c-0.512-2.048 6.144-2.56 8.704-2.56l12.8 1.536-5.12-17.408h-29.184c-2.56 0-4.096 0.512-6.656 1.024s-3.584 1.536-4.608 3.584c-1.024 1.536-2.56 3.072-1.536 6.656l8.192 27.648h-14.336l4.608 15.872h14.336l3.584 12.8h-14.336l4.608 14.848h62.976l-4.096-15.36z m9.728 41.984l-4.608-15.872h-35.328l-4.096-3.072c-1.536-1.536-2.048-1.024-4.096-2.048s-6.144-3.072-11.776-3.072h-11.264l4.608 14.848h3.584c3.072 0 5.12 0.512 5.632 1.024 1.024 0.512 2.56 2.048 4.096 5.12l6.656 11.776h25.6l-4.608-8.704h25.6z m202.24 106.496c4.096-1.536 6.656-4.096 8.704-7.168 0 1.024 0.512 1.536 0.512 2.56l1.024 0.512c11.776 1.536 14.848 2.048 27.648 4.608l0.512-1.024c-2.048-9.216-4.608-18.432-6.656-28.16-4.608-19.456-6.144-29.696-8.192-39.936l-1.024-1.024c-11.776 0-15.36 0-26.624-0.512l-0.512 1.024c0.512 1.536 0.512 2.56 1.024 4.096-4.096-3.584-8.192-5.632-12.8-6.144-4.608 0-8.704 0.512-13.824 2.56-15.36 6.144-12.8 23.04-10.752 31.744 2.048 9.216 5.632 18.432 13.312 25.6 10.24 10.752 22.528 13.312 27.648 11.264z m-136.192-68.096c1.024 3.584 19.456 79.36 19.456 79.36l7.68 35.84s0.512 2.56 1.024 4.096c3.584-0.512 12.288-0.512 33.28-0.512h8.192c16.896 0 31.232-0.512 38.4-10.24 3.072-4.096 4.096-8.704 4.096-13.824 0-3.584-0.512-7.68-1.536-10.752-3.072-12.8-9.728-23.552-19.456-30.72-14.336-10.752-32.256-10.752-48.64-10.752h-1.536c-1.024-0.512-2.56-2.048-2.56-2.048 0-0.512-4.096-15.872-4.096-15.872s-4.608-20.992-5.12-24.576h-29.184z m7.168-104.96c-1.024-3.072-1.536-5.12-4.096-7.168-2.56-2.048-5.12-4.096-11.776-4.096l-12.288-0.512v-10.752c0-3.072 0.512-2.56 1.024-3.072 0.512-0.512 1.024-0.512 1.536-1.024h4.096l11.776 0.512-4.608-15.872h-13.312c-9.216 0-16.384 0-18.432 2.048-2.048 1.536-2.56 3.072-2.56 6.144l1.024 42.496h21.504l-0.512-8.704h5.12c1.536 0 3.072 0 3.584 0.512 0.512 0.512 1.024 1.024 1.536 2.048l2.048 6.656h16.896l-2.56-9.216z m74.752-42.496h-23.04l1.536 5.12h-46.592l4.608 15.36h4.608l24.064 80.896 5.12 16.384h23.04l-2.56-8.192s6.144 4.608 12.288 6.144c4.608 1.024 28.672 2.048 36.864 2.048h25.088l0.512-9.216c0-1.536 1.024-2.048 4.096-2.048h5.12l-4.608-15.36h-13.312c-11.776-1.024-15.872 4.096-15.872 9.728l-0.512 9.216-2.56-8.192h-8.192l-24.064-79.872h6.656l-5.12-16.384h-6.656l-0.512-5.632z m102.912 70.656h-25.088l-4.096-12.288h25.088l-4.096-13.824h-27.136l-5.12-5.632h10.752l2.56-17.408c0.512-1.536 0.512-2.56 1.024-3.584 0.512-0.512 4.096-1.024 5.632-1.024h3.072l-5.12-16.896h-8.192c-1.536 0-3.072 0-6.144 0.512-2.56 0-4.096 1.536-6.144 2.56-1.536 0.512-4.096 2.56-4.608 5.632l-2.56 16.896-12.288-16.896c-4.096-5.12-9.216-9.216-18.432-9.216h-17.408l4.608 14.848h6.656c2.048 0 3.584 0.512 4.608 1.536 1.536 0.512 2.56 1.024 3.584 3.072l17.92 25.088h-23.552l4.096 13.824h27.136l4.096 12.288h-26.624l4.608 15.36h74.24l-3.072-14.848z m5.12 29.696c-3.072-5.632-8.704-9.728-17.92-9.728h-15.36l4.608 14.848h3.072c1.536 0 2.56 0 3.584 0.512 0.512 0.512 1.536 1.024 2.048 1.536l5.12 8.704c7.68 11.776 9.728 16.384 17.408 29.696-1.536 14.848-2.048 19.456-3.072 29.184-0.512 5.632-1.536 11.776-2.048 17.408-1.536 11.776-1.024 10.24-2.56 17.92v1.536l1.024 1.024c11.776 1.536 12.288 2.048 25.088 4.096l1.024-1.024 1.536-32.768v-2.048c6.656 15.36 6.656 10.752 14.848 30.208v0.512l1.024 1.024c11.264 1.536 13.312 2.048 25.6 4.096l1.024-1.024-66.048-115.712z"  horiz-adv-x="1024" />

    
    <glyph glyph-name="dui" unicode="&#58905;" d="M349.372356 16.897481L1.047626 365.236661l61.30417 61.30417 287.02056-287.027785 607.47122 607.45677 61.296945-61.30417z"  horiz-adv-x="1024" />

    
    <glyph glyph-name="zhuanhuan" unicode="&#58915;" d="M46.435109 501.536386H977.976716a43.350032 43.350032 0 0 1 43.350032 43.350032l-0.007225 0.093925a43.306682 43.306682 0 0 1-18.445438 36.298426L654.90338 825.491173a43.350032 43.350032 0 0 1-49.794737-70.964002l236.936824-166.290721H46.435109a43.350032 43.350032 0 0 1 0-86.700064zM977.976716 295.977761H46.435109a43.350032 43.350032 0 0 1-43.350032-43.350032l0.007225-0.07225a43.306682 43.306682 0 0 1 18.445439-36.312877l347.985155-244.212404a43.313907 43.313907 0 0 1 60.386594 10.584633 43.342807 43.342807 0 0 1-10.577408 60.379369L182.380809 209.277697H977.976716a43.350032 43.350032 0 0 1 0 86.700064z"  horiz-adv-x="1024" />

    
    <glyph glyph-name="xinghao" unicode="&#58888;" d="M571.97 405.142c45.654 21.173 89.987 42.565 131.673 63.594 41.684 21.319 75.062 37.052 99.691 46.902 24.702 9.63 44.479 14.778 59.476 14.778 24.702 0 46.023-8.086 64.108-24.996 18.085-16.468 27.055-37.421 27.055-62.048 0-14.115-4.484-28.966-13.307-44.112-8.751-15.22-18.234-24.996-28.085-29.262-91.309-35.877-191.955-62.271-301.574-78.592 19.923-18.084 44.333-42.714 73.374-73.004 29.041-30.733 44.332-46.906 45.507-48.965 10.736-14.778 25.511-33.23 44.626-55.14 19.115-22.055 32.348-39.111 39.773-51.537 7.425-12.572 11.174-27.347 11.174-45.068 0-22.644-8.453-42.567-25.51-59.476-16.835-17.056-38.965-25.585-65.872-25.585s-56.976 21.026-90.796 62.639c-33.599 41.612-77.049 116.819-130.128 225.115-53.743-97.485-89.987-162.109-108.221-193.281-18.453-30.877-36.171-54.476-53.081-70.505-17.055-15.878-36.391-23.967-58.448-23.967-26.173 0-48.009 8.971-65.504 27.055-16.983 18.084-25.879 37.568-25.879 57.931 0 19.115 3.457 33.599 10.587 43.377 65.137 88.444 132.996 165.638 203.942 230.41-59.476 9.338-112.484 19.705-159.167 30.877-46.759 11.542-96.455 27.938-148.73 49.994-8.601 4.337-16.834 14.115-24.996 29.262-7.939 14.998-11.909 29.113-11.909 41.833 0 24.628 8.97 45.507 27.055 62.048 18.084 16.835 38.743 24.996 62.196 24.996 17.055 0 38.157-5.148 63.739-15.363 25.363-10.366 57.712-25.143 96.972-44.554 39.333-19.483 84.178-41.245 134.393-65.358-9.189 44.625-16.835 95.868-22.866 153.36-6.027 57.712-8.97 97.191-8.97 118.511 0 26.173 8.308 48.448 24.85 67.417 16.834 18.747 38.009 28.084 64.254 28.084 25.731 0 46.539-9.337 63.226-28.084 16.763-18.969 24.996-43.82 24.996-74.989 0-8.453-1.397-25.218-3.822-50.51-2.206-25.217-6.027-55.507-10.514-91.165-4.628-35.728-9.776-76.751-15.29-122.625v0z"  horiz-adv-x="1024" />

    
    <glyph glyph-name="paizhao" unicode="&#58965;" d="M1022.658207 555.431724a49.346207 49.346207 0 0 0-49.434483 49.134345c0 27.047724 22.174897 49.081379 49.434483 49.081379 27.259586 0 49.434483-22.033655 49.434483-49.081379a49.346207 49.346207 0 0 0-49.434483-49.134345z m-408.752552-10.822621c-108.897103 0-197.490759-87.675586-197.490758-195.442758 0-107.802483 88.593655-195.513379 197.490758-195.513379S811.431724 241.363862 811.431724 349.14869s-88.628966 195.460414-197.508414 195.460413z m0-446.940689c-140.199724 0-254.269793 112.816552-254.269793 251.480276S473.688276 600.628966 613.905655 600.628966c67.848828 0 131.689931-26.200276 179.764966-73.798621 48.039724-47.563034 74.504828-110.662621 74.504827-177.681655 0-138.663724-114.052414-251.480276-254.269793-251.480276zM65.235862-128C29.254621-121.467586 0-92.548414 0-57.026207V694.854621C0 730.341517 29.254621 759.243034 65.235862 754.758621h233.401379c6.603034 4.484414 12.623448 8.192 15.589518 14.071172l30.808275 60.910345C353.597793 848.684138 381.351724 896 410.65931 896h414.543449c28.107034 0 55.190069-43.255172 65.57131-66.118621l30.861241-61.051586c2.966069-5.879172 9.004138-9.586759 15.571862-14.071172h233.419035C1206.589793 759.243034 1235.862069 730.341517 1235.862069 694.836966l-0.03531-422.947311c-0.971034-1.306483-5.384828-28.336552-26.994759-28.336552S1182.896552 271.889655 1182.896552 271.889655V669.166345c-8.350897 21.009655-12.270345 32.626759-46.715586 32.626758H896.670897c-0.353103 5.455448-0.776828 6.249931-1.271173 6.991449L842.504828 790.651586C838.903172 796.672 814.609655 835.425103 783.748414 843.034483H452.148966c-30.896552-7.609379-55.578483-47.13931-58.368-51.817931l-52.736-81.566897c-1.041655-1.588966-1.783172-3.354483-2.259863-7.856552H99.751724c-21.168552 2.718897-38.382345-14.37131-46.786207-35.380965v-689.222621c8.403862-21.009655 25.617655-38.117517 46.786207-52.224h1036.429242c21.168552 0.388414 46.715586 7.150345 46.715586 52.224v61.510621c0 16.207448 5.296552 30.437517 22.245517 30.437517 16.913655 0 30.68469-13.665103 30.68469-30.437517v-95.70869c0-35.539862-29.236966-64.441379-65.200552-70.991448H65.235862z"  horiz-adv-x="1235" />

    
    <glyph glyph-name="xiaoxi1" unicode="&#58950;" d="M544 798.976V864h-64v-65.024C289.536 786.304 160 658.624 160 416v-288h64V416c0 192 115.456 320 288 320 180.544 0 288-128 288-320v-288h64V416c0 242.88-122.496 370.56-320 382.976zM672 64a160 160 0 1 0-320 0h64a96 96 0 0 1 192 0h64zM64 128h896v-64H64v64z"  horiz-adv-x="1024" />

    
    <glyph glyph-name="kuaijiezhifu" unicode="&#58942;" d="M854.39 714.162H169.508c-41.34 0-75.211-33.666-75.211-74.802v-83.602h835.408V639.36c0 41.136-33.973 74.802-75.313 74.802zM94.296 128.742c0-41.136 33.87-74.904 75.21-74.904h684.885c41.443 0 75.313 33.666 75.313 74.904V443.504H94.296v-314.762z m683.348 110.617h61.91v-70.402h-61.91v70.402z m-79.611 0h61.909v-70.402h-61.909v70.402z m-76.337 0h61.909v-70.402h-61.909v70.402z"  horiz-adv-x="1024" />

    
    <glyph glyph-name="tixian" unicode="&#58885;" d="M887.745 832h-751.49c-41.25 0-74.809-32.698-74.809-72.89v-212.672c0-40.191 33.559-72.89 74.809-72.89h37.181v-467.948c0-41.687 34.093-75.601 76-75.601h523.469c41.906 0 76 33.914 76 75.601v467.948h38.84c41.25 0 74.81 32.698 74.81 72.89v212.672c0 40.192-33.56 72.89-74.81 72.89zM772.905-20h-523.469c-14.336 0-26 11.484-26 25.601v642.399h575.469v-642.399c0-14.117-11.664-25.601-26-25.601zM912.555 546.438c0-12.622-11.13-22.89-24.81-22.89h-38.84v124.452h9.265c11.046 0 20 8.954 20 20s-8.954 20-20 20h-693.999c-11.046 0-20-8.954-20-20s8.954-20 20-20h9.265v-124.452h-37.181c-13.68 0-24.809 10.268-24.809 22.89v212.672c0 12.622 11.129 22.89 24.809 22.89h751.49c13.68 0 24.81-10.268 24.81-22.89v-212.672zM644.934 461.255c-8.426 7.142-21.046 6.103-28.188-2.322l-103.246-121.776-103.245 121.777c-7.144 8.426-19.765 9.464-28.189 2.322-8.425-7.143-9.464-19.764-2.322-28.189l89.079-105.067h-56.482c-11.046 0-20-8.954-20-20s8.954-20 20-20h79.659v-32h-79.659c-11.046 0-20-8.954-20-20s8.954-20 20-20h79.659v-68c0-11.046 8.954-20 20-20 0.507 0 1.003 0.039 1.5 0.076 0.497-0.037 0.993-0.076 1.5-0.076 11.046 0 20 8.954 20 20v68h75c11.046 0 20 8.954 20 20s-8.954 20-20 20h-75v32h75c11.046 0 20 8.954 20 20s-8.954 20-20 20h-51.823l89.078 105.066c7.143 8.425 6.104 21.046-2.321 28.189z"  horiz-adv-x="1024" />

    
    <glyph glyph-name="jiangli" unicode="&#58886;" d="M512 874.24c-198.482 0-359.387-160.905-359.387-359.382 0-198.481 160.905-359.386 359.387-359.386 198.478 0 359.382 160.905 359.382 359.386 0 198.478-160.905 359.382-359.382 359.382v0zM512 203.392c-172.018 0-311.466 139.448-311.466 311.466s139.448 311.466 311.466 311.466c172.013 0 311.466-139.448 311.466-311.466 0-172.018-139.452-311.466-311.466-311.466v0zM512 778.403c-145.558 0-263.55-117.992-263.55-263.545 0-145.557 117.992-263.549 263.55-263.549 145.553 0 263.545 117.992 263.545 263.549 0 145.553-117.992 263.545-263.545 263.545v0zM512 299.224c-119.094 0-215.629 96.54-215.629 215.634 0 119.089 96.535 215.629 215.629 215.629 119.094 0 215.629-96.54 215.629-215.629 0-119.094-96.535-215.634-215.629-215.634v0zM735.559 275.245l91.428-177.178c-37.135 14.506-80.020 13.721-118.229-5.992-38.209-19.722-63.699-54.221-73.397-92.886l-91.423 177.168-31.938-16.487 138.138-267.688 31.938 16.482-3.207 6.224c-27.305 52.914-6.552 117.949 46.362 145.254 52.924 27.3 117.944 6.538 145.259-46.377l3.207-6.214 31.938 16.472-3.217 6.224-134.922 261.469-31.937-16.472zM273.399 246.106l-76.386-148.038c37.13 14.506 80.015 13.721 118.229-5.987 38.204-19.727 63.695-54.226 73.397-92.891l81.869 158.653 39.226-2.361-135.875-263.298-31.938 16.482 3.207 6.224c27.305 52.914 6.551 117.949-46.358 145.254-52.928 27.3-117.948 6.538-145.263-46.377l-3.207-6.214-31.938 16.471 3.217 6.224 125.023 242.284 26.797-26.427zM273.399 246.106z"  horiz-adv-x="1024" />

    
    <glyph glyph-name="riqi" unicode="&#59139;" d="M514.048 455.68h-4.608c-22.016 0-39.936-17.92-39.936-39.936v-4.608c0-22.016 17.92-39.936 39.936-39.936h4.608c22.016 0 39.936 17.92 39.936 39.936v4.608c0 22.016-17.92 39.936-39.936 39.936zM514.048 308.224h-4.608c-22.016 0-39.936-17.92-39.936-39.936v-4.608c0-22.016 17.92-39.936 39.936-39.936h4.608c22.016 0 39.936 17.92 39.936 39.936v4.608c0 22.016-17.92 39.936-39.936 39.936zM724.992 308.224h-4.608c-22.016 0-39.936-17.92-39.936-39.936v-4.608c0-22.016 17.92-39.936 39.936-39.936h4.608c22.016 0 39.936 17.92 39.936 39.936v4.608c0 22.016-17.92 39.936-39.936 39.936zM724.992 455.68h-4.608c-22.016 0-39.936-17.92-39.936-39.936v-4.608c0-22.016 17.92-39.936 39.936-39.936h4.608c22.016 0 39.936 17.92 39.936 39.936v4.608c0 22.016-17.92 39.936-39.936 39.936zM514.048 160.768h-4.608c-22.016 0-39.936-17.92-39.936-39.936v-4.608c0-22.016 17.92-39.936 39.936-39.936h4.608c22.016 0 39.936 17.92 39.936 39.936v4.608c0 22.016-17.92 39.936-39.936 39.936zM303.616 160.768h-4.608c-22.016 0-39.936-17.92-39.936-39.936v-4.608c0-22.016 17.92-39.936 39.936-39.936h4.608c22.016 0 39.936 17.92 39.936 39.936v4.608c0 22.016-17.92 39.936-39.936 39.936zM301.568 455.68c-23.04 0-41.984-18.944-41.984-41.984 0-23.04 18.944-41.984 41.984-41.984 23.04 0 41.984 18.944 41.984 41.984 0 23.04-18.944 41.984-41.984 41.984zM303.616 308.224h-4.608c-22.016 0-39.936-17.92-39.936-39.936v-4.608c0-22.016 17.92-39.936 39.936-39.936h4.608c22.016 0 39.936 17.92 39.936 39.936v4.608c0 22.016-17.92 39.936-39.936 39.936zM870.4 798.208H768v-51.2h102.4c16.896 0 30.72-13.824 30.72-30.72v-128.512h-778.24v128.512c0 16.896 13.824 30.72 30.72 30.72h102.4v51.2h-102.4c-45.056 0-81.92-36.864-81.92-81.92v-690.176c0-45.056 36.864-81.92 81.92-81.92H870.4c45.056 0 81.92 36.864 81.92 81.92V716.288c0 45.056-36.864 81.92-81.92 81.92z m0-802.816h-716.8c-16.896 0-30.72 13.824-30.72 30.72v510.464H901.12v-510.464c0-16.896-13.824-30.72-30.72-30.72zM353.28 691.712c14.336 0 25.6 11.264 25.6 25.6v80.384c0 14.336-11.264 25.6-25.6 25.6s-25.6-11.264-25.6-25.6v-80.384c0-13.824 11.776-25.6 25.6-25.6zM512 691.712c14.336 0 25.6 11.264 25.6 25.6v80.384c0 14.336-11.264 25.6-25.6 25.6s-25.6-11.264-25.6-25.6v-80.384c0-13.824 11.264-25.6 25.6-25.6zM670.72 691.712c14.336 0 25.6 11.264 25.6 25.6v80.384c0 14.336-11.264 25.6-25.6 25.6s-25.6-11.264-25.6-25.6v-80.384c0-13.824 11.264-25.6 25.6-25.6z"  horiz-adv-x="1024" />

    
    <glyph glyph-name="kuaijie" unicode="&#58896;" d="M753.39687 283.002435h74.50713c23.329391 0 42.317913 19.878957 42.317913 44.29913s-18.988522 44.29913-42.317913 44.299131h-74.50713c-23.329391 0-42.317913-19.878957-42.317913-44.299131s18.988522-44.29913 42.317913-44.29913zM231.958261 105.85043499999995h297.984c23.329391 0 42.317913 19.856696 42.317913 44.29913 0 24.420174-18.988522 44.27687-42.295652 44.27687H231.913739c-23.329391 0-42.317913-19.878957-42.317913-44.299131s18.988522-44.29913 42.317913-44.29913z m0 177.152h372.49113c23.329391 0 42.317913 19.878957 42.317913 44.29913s-18.988522 44.29913-42.317913 44.299131H231.936c-23.329391 0-42.317913-19.878957-42.317913-44.299131s18.988522-44.29913 42.317913-44.29913zM1048.041739 896H154.067478C69.12 896 0 823.674435 0 734.786783v-701.573566C0-55.652173999999945 69.12-128 154.067478-128H1048.041739C1132.966957-128 1202.086957-55.67443500000002 1202.086957 33.213216999999986V734.786783C1202.086957 823.6521740000001 1132.966957 896 1048.041739 896zM84.658087 662.1495649999999V734.786783c0 40.069565 31.142957 72.637217 69.409391 72.637217H1048.041739c38.288696 0 69.409391-32.589913 69.409391-72.637217v-72.637218H84.658087z m1032.770783-628.936348c0-40.069565-31.142957-72.637217-69.409392-72.637217H154.067478c-38.288696 0-69.409391 32.589913-69.409391 72.637217V573.5513040000001h1032.770783v-540.338087z"  horiz-adv-x="1202" />

    
    <glyph glyph-name="chenggong-yin" unicode="&#59023;" d="M512 844.8c-253.952 0-460.8-206.848-460.8-460.8s206.848-460.8 460.8-460.8S972.8 130.048 972.8 384s-206.848 460.8-460.8 460.8z m260.096-342.016l-311.296-331.776-219.136 198.656c-8.192 8.192-8.192 20.48-2.048 28.672 8.192 8.192 20.48 8.192 28.672 2.048l190.464-169.984 282.624 303.104c8.192 8.192 20.48 8.192 28.672 0 10.24-10.24 10.24-22.528 2.048-30.72z"  horiz-adv-x="1024" />

    
    <glyph glyph-name="qq1" unicode="&#59019;" d="M960.1 384c0 247.4-200.5 447.9-447.9 447.9S64.3 631.4 64.3 384s200.5-447.9 447.9-447.9S960.1 136.7 960.1 384zM690.8 450.8c0 185.5-96.1 241.6-178.6 241.6s-180.5-55.3-180.5-241.6c0 0-62.6-140.2-62.6-207.5s56.5 32.7 56.5 32.7-1.8-67.2 56.5-113.8c0 0-70.8-28.4-47.3-42.3 23.5-13.9 170.6-2.4 170.6-2.4h10s142.1-9.1 169.1 0-16.4 38.7-44.4 44.7c56.6 50.4 56.6 113.8 56.6 113.8s55.9-101.8 55.9-34.4-61.8 209.2-61.8 209.2z"  horiz-adv-x="1024" />

    
    <glyph glyph-name="tuiguang" unicode="&#59006;" d="M51.564309 419.26207c1.459573-0.182447 2.919146-0.304078 4.317904-0.304078 14.899809 0 27.914336 10.945582 30.103695 26.089869C112.804348 632.783019 262.714669 782.690907 450.449827 809.511779c16.602644 2.371806 28.157598 17.817739 25.785791 34.420383-2.432622 16.602644-17.879771 27.852304-34.421599 25.785792-214.250736-30.651035-385.38325-201.722733-416.034285-416.035501-2.371806-16.602644 9.181931-32.048576 25.784575-34.420383zM450.449827-42.506722C262.714669-15.687066 112.804348 134.222039 85.985908 321.957196c-2.432622 16.66346-17.879771 27.914336-34.420382 25.847824-16.602644-2.373023-28.157598-17.818955-25.785792-34.360784C56.430769 99.071869 227.563283-72.061861 441.876051-102.712896c1.459573-0.182447 2.919146-0.304078 4.317904-0.304078 14.899809 0 27.913119 10.946798 30.103695 26.150685 2.369374 16.540612-9.184364 31.987761-25.847823 34.359567zM972.426009 347.742988c-16.602644 2.008129-31.988977-9.0603-34.421599-25.785792-26.819656-187.735158-176.72876-337.644262-364.463918-364.463918-16.66346-2.371806-28.217197-17.818955-25.846607-34.359567 2.18936-15.203886 15.141855-26.150685 30.042879-26.150685 1.398758 0 2.919146 0.121631 4.317904 0.304078 214.312768 30.651035 385.507313 201.722733 416.157132 416.035501 2.37059 16.601428-9.184364 32.048576-25.785791 34.420383zM573.539275 809.511779c187.735158-26.820872 337.645479-176.72876 364.463918-364.463918 2.18936-15.143071 15.203886-26.089869 30.04288-26.089869 1.398758 0 2.919146 0.121631 4.379936 0.304078 16.540612 2.371806 28.156381 17.817739 25.785791 34.420383-30.651035 214.251952-201.784765 385.384466-416.158348 416.035501-15.933673 2.18936-32.049793-9.061516-34.359567-25.785792-2.371806-16.602644 9.181931-32.048576 25.84539-34.420383zM816.06924 383.502529c0 167.667244-136.408053 304.075297-304.074081 304.075297-167.667244 0-304.075297-136.408053-304.075297-304.075297s136.408053-304.075297 304.075297-304.075297c167.666028 0 304.074081 136.408053 304.074081 304.075297zM511.995159 140.241561c-134.159094 0-243.260968 109.103089-243.260968 243.260968s109.101873 243.259751 243.260968 243.259751c134.157878 0 243.259751-109.101873 243.259751-243.259751s-109.101873-243.260968-243.259751-243.260968zM511.995159 505.132404c-67.079547 0-121.629876-54.550328-121.629876-121.629875s54.550328-121.629876 121.629876-121.629876c67.078331 0 121.628659 54.550328 121.628659 121.629876s-54.550328 121.629876-121.628659 121.629875z m0-182.445421c-33.509366 0-60.815546 27.244148-60.815546 60.81433s27.30618 60.81433 60.815546 60.814329c33.50815 0 60.81433-27.244148 60.81433-60.814329 0-33.568965-27.30618-60.81433-60.81433-60.81433z"  horiz-adv-x="1024" />

    
    <glyph glyph-name="bitebichongzhi" unicode="&#58966;" d="M589.909333 226.474667h-128.512v130.261333h128.512c36.010667 0 65.365333-29.312 65.365334-65.365333 0-35.541333-28.928-64.896-65.365334-64.896z m-128.042666 320.554666h96.938666c36.010667 0 65.322667-29.354667 65.322667-65.365333 0-36.010667-29.312-65.322667-65.322667-65.322667h-96.938666V547.029333z m256.085333-144.042666a155.776 155.776 0 0 1 28.458667 90.24c0 81.792-60.928 148.053333-136.490667 148.053333h-21.802667V756.010667A11.946667 11.946667 0 0 1 576.128 768h-39.552a11.946667 11.946667 0 0 1-12.032-11.904V641.28h-63.146667V756.010667A11.946667 11.946667 0 0 1 449.408 768h-39.594667a11.946667 11.946667 0 0 1-11.989333-11.904V641.28H268.032A11.946667 11.946667 0 0 1 256 629.376v-40.106667c0-6.229333 4.437333-11.562667 10.666667-11.989333 44.458667-4.010667 68.48-33.792 68.48-70.698667v-244.992c0-32.896-16.896-59.093333-54.272-62.677333a11.818667 11.818667 0 0 1-10.666667-9.344l-7.552-40.448a11.605333 11.605333 0 0 1 11.562667-13.781333h124.032v-114.261334a11.946667 11.946667 0 0 1 12.032-11.989333h39.552a11.946667 11.946667 0 0 1 12.032 11.989333v114.730667h63.146666v-114.730667a11.946667 11.946667 0 0 1 11.989334-11.989333h39.552a11.946667 11.946667 0 0 1 11.989333 11.989333v114.730667h53.376c75.136 0 136.490667 65.322667 136.490667 146.261333-0.426667 50.218667-24.448 94.677333-60.458667 120.917334z"  horiz-adv-x="1024" />

    
    <glyph glyph-name="weixin1" unicode="&#59021;" d="M514.925714-128c-280.868571 0-509.074286 228.205714-509.074285 512s228.205714 512 509.074285 512c280.868571 0 509.074286-228.205714 509.074286-512 0-280.868571-228.205714-512-509.074286-512z m111.177143 623.177143h20.48c-20.48 93.622857-117.028571 160.914286-228.205714 160.914286-125.805714 0-225.28-84.845714-225.28-196.022858 0-64.365714 35.108571-114.102857 90.697143-155.062857l-23.405715-70.217143 78.994286 40.96c29.257143-5.851429 49.737143-11.702857 78.994286-11.702857h20.48c-5.851429 14.628571-5.851429 32.182857-5.851429 46.811429 0 102.4 84.845714 184.32 193.097143 184.32z m-122.88 61.44c17.554286 0 29.257143-11.702857 29.257143-29.257143s-11.702857-29.257143-29.257143-29.257143-35.108571 11.702857-35.108571 29.257143c0 20.48 17.554286 29.257143 35.108571 29.257143z m-157.988571-55.588572c-17.554286 0-35.108571 11.702857-35.108572 29.257143s17.554286 29.257143 35.108572 29.257143 29.257143-11.702857 29.257143-29.257143-11.702857-29.257143-29.257143-29.257143z m485.668571-184.32c0 90.697143-90.697143 166.765714-193.097143 166.765715-108.251429 0-193.097143-76.068571-193.097143-166.765715s84.845714-166.765714 193.097143-166.765714c23.405714 0 43.885714 5.851429 67.291429 11.702857l61.44-35.108571-17.554286 58.514286c49.737143 35.108571 81.92 81.92 81.92 131.657142z m-254.537143 29.257143c-11.702857 0-23.405714 11.702857-23.405714 23.405715s11.702857 23.405714 23.405714 23.405714c17.554286 0 29.257143-11.702857 29.257143-23.405714s-11.702857-23.405714-29.257143-23.405715z m125.805715 0c-11.702857 0-23.405714 11.702857-23.405715 23.405715s11.702857 23.405714 23.405715 23.405714c17.554286 0 29.257143-11.702857 29.257142-23.405714-2.925714-11.702857-11.702857-23.405714-29.257142-23.405715zM514.925714-128c-280.868571 0-509.074286 228.205714-509.074285 512s228.205714 512 509.074285 512c280.868571 0 509.074286-228.205714 509.074286-512 0-280.868571-228.205714-512-509.074286-512z m111.177143 623.177143h20.48c-20.48 93.622857-117.028571 160.914286-228.205714 160.914286-125.805714 0-225.28-84.845714-225.28-196.022858 0-64.365714 35.108571-114.102857 90.697143-155.062857l-23.405715-70.217143 78.994286 40.96c29.257143-5.851429 49.737143-11.702857 78.994286-11.702857h20.48c-5.851429 14.628571-5.851429 32.182857-5.851429 46.811429 0 102.4 84.845714 184.32 193.097143 184.32z m-122.88 61.44c17.554286 0 29.257143-11.702857 29.257143-29.257143s-11.702857-29.257143-29.257143-29.257143-35.108571 11.702857-35.108571 29.257143c0 20.48 17.554286 29.257143 35.108571 29.257143z m-157.988571-55.588572c-17.554286 0-35.108571 11.702857-35.108572 29.257143s17.554286 29.257143 35.108572 29.257143 29.257143-11.702857 29.257143-29.257143-11.702857-29.257143-29.257143-29.257143z m485.668571-184.32c0 90.697143-90.697143 166.765714-193.097143 166.765715-108.251429 0-193.097143-76.068571-193.097143-166.765715s84.845714-166.765714 193.097143-166.765714c23.405714 0 43.885714 5.851429 67.291429 11.702857l61.44-35.108571-17.554286 58.514286c49.737143 35.108571 81.92 81.92 81.92 131.657142z m-254.537143 29.257143c-11.702857 0-23.405714 11.702857-23.405714 23.405715s11.702857 23.405714 23.405714 23.405714c17.554286 0 29.257143-11.702857 29.257143-23.405714s-11.702857-23.405714-29.257143-23.405715z m125.805715 0c-11.702857 0-23.405714 11.702857-23.405715 23.405715s11.702857 23.405714 23.405715 23.405714c17.554286 0 29.257143-11.702857 29.257142-23.405714-2.925714-11.702857-11.702857-23.405714-29.257142-23.405715z"  horiz-adv-x="1024" />

    
    <glyph glyph-name="kefu2" unicode="&#59184;" d="M393 331.4m-30 0a30 30 0 1 1 60 0 30 30 0 1 1-60 0ZM899 468.3c-3.3 9.9-7 19.6-11.1 29.3-20.7 48.8-50.2 92.7-87.9 130.4s-81.5 67.2-130.4 87.9C619.1 737.2 565.4 748 510 748s-109-10.8-159.6-32.2c-48.8-20.7-92.7-50.2-130.4-87.9s-67.2-81.5-87.9-130.4c-4.1-9.6-7.8-19.4-11.1-29.3-33.8-22.7-56-61.2-56-104.9 0-65.2 49.5-118.9 112.9-125.6V466.8C229.7 599.7 359 694 509.9 694s280.2-94.4 332-227.2v-229.2c63.5 6.7 112.9 60.4 112.9 125.6 0.2 43.9-22 82.4-55.8 105.1zM512.8 636c-107.3-0.6-186.5-34.6-235.4-101.2-88.5-120.6-43.8-306.2-33.1-344.9-5.2-29.8-16.2-52.4-31.9-65.6-10.8-9.1-20.7-11-22.7-11.3-13.6-0.4-24.5-9.9-27.6-23.1-3.1-13.4 4-27.2 16.3-33.5 63.9-32.9 118.2-24.8 152.4-12.2 15 5.5 27.5 12.3 37.2 18.5 31.7-23.2 80.4-35.9 133.2-35.9 32.6 0 66.8 4.8 99.5 15 54.6 17 101.1 47.8 134.5 89 39.5 48.7 60.7 110.7 63 184.3 3.1 99.6-23.3 178.8-78.4 235.3-83.7 85.5-202.1 85.7-207 85.6z m225.4-319.1c-4.7-148.8-99.4-200.4-155.4-217.9-85.9-26.8-169.1-5.6-188.6 20.8-5.2 7.1-13.2 11.7-22 12.3-0.7 0-1.4 0.1-2.1 0.1-8 0-15.6-3.1-21.2-8.9-2.6-2.5-33.9-31.4-82.9-30 16.4 19.3 32.2 49 38.7 94.2 0.6 4.4 0.3 8.9-1 13.1-0.6 1.9-57.3 190.4 22.2 298.7 37 50.4 100 76.2 187.3 76.7 1.2 0 98.7-0.7 164-68 43-44.3 63.5-108.6 61-191.1zM513 331.4m-30 0a30 30 0 1 1 60 0 30 30 0 1 1-60 0ZM646 331.4m-30 0a30 30 0 1 1 60 0 30 30 0 1 1-60 0Z"  horiz-adv-x="1024" />

    
    <glyph glyph-name="VIP" unicode="&#58914;" d="M608.23552-48.24064h-72.54528v346.80832h72.54528v-346.80832z m313.92256 168.704c-19.33824-29.00992-49.46432-43.38176-90.50112-43.38176h-83.17952v-125.32736H675.9424v346.80832H834.56c33.58208 0 59.97056-9.94304 79.03744-29.70624 19.20512-19.75808 28.73856-46.83776 28.73856-81.38752 0.13824-24.30976-6.6304-46.68928-20.17792-67.00544z m-791.30624-168.704V690.28864a5.55008 5.55008 0 0 1-5.5296 5.5296H68.8128a5.54496 5.54496 0 0 0-5.5296 5.52448V757.99552a5.54496 5.54496 0 0 0 5.5296 5.52448h259.48672a5.54496 5.54496 0 0 0 5.52448-5.52448v-332.71808l338.93376 336.5888c0.96768 0.96768 2.48832 1.65888 3.87072 1.65888h252.71296c4.97664 0 7.32672-5.9392 3.87072-9.3952L130.85184-48.24064z m724.15744 275.7888c-9.94816 7.32672-26.25024 11.05408-48.91648 11.05408h-57.61536v-101.5552h67.29216c23.20896 0 38.9632 7.05024 47.39584 21.14048 4.5568 7.74144 6.76864 18.65728 6.76864 32.74752 0 16.9984-4.97152 29.15328-14.9248 36.61312z m0 0z"  horiz-adv-x="1024" />

    
    <glyph glyph-name="tuiguang1" unicode="&#58952;" d="M721.257 349.313c-90.101 0-163.141 73.041-163.141 163.141s73.041 163.141 163.141 163.141c90.101 0 163.141-73.041 163.141-163.141 0 0 0 0 0 0 0-90.101-73.041-163.141-163.141-163.141zM721.257 620.545c-59.737-0.034-108.148-48.467-108.148-108.207 0-59.761 48.446-108.207 108.207-108.207 59.761 0 108.207 48.446 108.207 108.207-0.101 59.743-48.522 108.141-108.261 108.207zM854.054 92.558c-15.138 0-27.408 12.27-27.408 27.408v8.603c0 15.145 12.281 27.422 27.422 27.422s27.422-12.281 27.422-27.422v-8.572c-0.034-15.114-12.293-27.348-27.408-27.348-0.021 0-0.042 0-0.063 0zM588.459 92.558c-15.124 0.018-27.378 12.281-27.378 27.408 0 0.007 0 0.021 0 0.032v60.777c0 0.022 0 0.049 0 0.075 0 88.462 71.713 160.175 160.175 160.175 65.996 0 122.67-39.915 147.201-96.919 1.563-3.967 2.234-7.357 2.234-10.905 0-15.138-12.27-27.408-27.408-27.408-10.945 0-20.39 6.414-24.784 15.69-16.453 38.383-53.75 64.666-97.185 64.666-58.174 0-105.335-47.145-105.36-105.311v-60.839c-0.034-15.111-12.292-27.35-27.408-27.35-0.042 0-0.083 0-0.125 0zM457.265 106.321c-0.007 0-0.020 0-0.031 0-3.776 0-7.193 1.53-9.669 4.004-70.082 70.011-113.433 166.766-113.433 273.648 0 106.882 43.351 203.639 113.43 273.646 2.511 2.679 6.066 4.347 10.013 4.347 7.57 0 13.703-6.137 13.703-13.703 0-3.945-1.668-7.502-4.337-10.004-65.129-65.062-105.411-154.971-105.411-254.286 0-99.317 40.282-189.225 105.401-254.276 2.471-2.482 3.998-5.9 3.998-9.673 0-7.554-6.112-13.68-13.661-13.703zM985.519 106.321c-7.563 0.007-13.692 6.139-13.692 13.703 0 3.775 1.525 7.193 3.994 9.669 65.114 65.057 105.392 154.964 105.392 254.279 0 99.315-40.278 189.22-105.39 254.277-2.678 2.511-4.346 6.066-4.346 10.012 0 7.57 6.137 13.703 13.703 13.703 3.945 0 7.503-1.667 10.002-4.337 70.089-70.018 113.44-166.774 113.44-273.657 0-106.882-43.351-203.639-113.43-273.646-2.478-2.479-5.898-4.011-9.674-4.011-0.093 0-0.187 0.001-0.279 0.004zM270.036 142.657c-0.004 0-0.007 0-0.007 0-5.312 0-9.92 3.017-12.203 7.429-35.092 68.098-55.641 148.524-55.641 233.751 0 143.303 58.102 273.036 152.035 366.926 2.445 2.29 5.74 3.697 9.362 3.697 7.57 0 13.705-6.137 13.705-13.705 0-3.623-1.405-6.917-3.701-9.367-88.957-88.927-143.984-211.803-143.984-347.533 0-80.72 19.462-156.894 53.95-224.086-0.364 0.969 0.178-1.154 0.178-3.406 0-7.562-6.127-13.695-13.687-13.705zM363.947 13.211c-0.007 0-0.021 0-0.032 0-3.776 0-7.193 1.53-9.669 4.004-57.562 57.578-101.767 128.51-127.575 207.751 68.847-137.742 67.907-134.999 67.907-132.038 0 7.571 6.137 13.706 13.706 13.706 4.607 0 8.684-2.273 11.169-5.759 45.949-64.496 105.194-116.495 174.014-152.771-117.401 85.978-115.888 82.572-115.888 78.812 0-7.543-6.096-13.664-13.63-13.703zM1078.568 13.211c-7.563 0.007-13.692 6.138-13.692 13.705 0 3.775 1.525 7.193 3.994 9.669 88.959 88.942 143.984 211.825 143.984 347.559 0 80.047-19.136 155.623-53.083 222.406 0.414-1.041-0.098 1.025-0.098 3.211 0 7.57 6.134 13.703 13.703 13.703 5.277 0 9.857-2.983 12.147-7.353 34.53-67.639 54.743-147.441 54.743-231.966 0-143.303-58.098-273.036-152.026-366.929-2.476-2.476-5.894-4.006-9.669-4.006-0.001 0-0.001 0-0.002 0zM1133.562 662.517c-0.007 0-0.023 0-0.035 0-4.583 0-8.639 2.255-11.118 5.714-46.113 64.231-105.442 116.006-174.283 152.103 118.785-86.55 117.518-83.408 117.518-79.969 0 7.568 6.137 13.703 13.705 13.703 3.402 0 6.515-1.239 8.909-3.292 57.392-57.367 101.525-128.023 127.385-206.958-69.455 138.145-68.502 135.385-68.502 132.403 0-7.523-6.063-13.631-13.569-13.703z"  horiz-adv-x="1433" />

    
    <glyph glyph-name="tixian1" unicode="&#58967;" d="M836-43.8H114.8c-59.7 0-108.3 48.6-108.3 108.3V716.9C6.5 776.5 55.1 825 114.8 825h724.5c59.7 0 108.3-48.6 108.3-108.3v-106.1c0-19.9-16.1-36.1-36.1-36.1s-36.1 16.2-36.1 36.1V716.8c0 19.9-16.2 36.1-36.1 36.1H114.8c-19.9 0-36.1-16.2-36.1-36.1v-652.4c0-19.9 16.2-36.1 36.1-36.1H836c19.9 0 36.1 16.2 36.1 36.1V176c0 20 16.1 36.1 36.1 36.1s36.1-16.1 36.1-36.1v-111.6c-0.1-59.7-48.6-108.2-108.3-108.2zM645 391.8c0 19.5 15.8 35.3 35.3 35.3 19.5 0 35.3-15.8 35.3-35.3 0-19.5-15.8-35.3-35.3-35.3-19.5 0-35.3 15.8-35.3 35.3z m299.8-141.9H584c-39.8 0-72.2 32.4-72.2 72.2V466.4c0 39.8 32.4 72.2 72.2 72.2h360.9c39.8 0 72.2-32.4 72.2-72.2V322c-0.1-39.8-32.5-72.1-72.3-72.1zM584 466.4V322h360.9l-0.1 144.3H584z"  horiz-adv-x="1024" />

    
    <glyph glyph-name="kefu1" unicode="&#59002;" d="M515.2 102.4h16c51.2 6.4 92.8 38.4 108.8 83.2 0 3.2 0 6.4-3.2 9.6-3.2 0-6.4 0-9.6-3.2 0 0-19.2-28.8-99.2-38.4-9.6 0-22.4-3.2-35.2-3.2-54.4 0-80 19.2-80 19.2-3.2 3.2-6.4 3.2-9.6 0-3.2-3.2-3.2-6.4 0-9.6 25.6-35.2 67.2-57.6 112-57.6z m422.4 444.8C889.6 729.6 716.8 864 505.6 864 288 864 108.8 723.2 67.2 534.4 32 528 0 496 0 460.8v-150.4c0-41.6 38.4-76.8 83.2-76.8 28.8 0 48 9.6 64 28.8 38.4-86.4 112-160 204.8-195.2 0 0 3.2 3.2 3.2 6.4s3.2 3.2 3.2 3.2h3.2c-19.2 16-102.4 89.6-118.4 195.2-6.4 48 32 92.8 73.6 99.2 70.4 12.8 144 25.6 214.4 38.4 44.8 6.4 80 28.8 96 67.2 3.2 9.6 9.6 25.6 12.8 51.2 0 3.2 3.2 6.4 9.6 6.4 3.2 0 6.4 0 6.4-3.2h3.2c28.8-38.4 86.4-121.6 92.8-208 9.6-99.2 3.2-166.4-80-236.8v-6.4c0-3.2 0-3.2 3.2-6.4h3.2s3.2 0 3.2 3.2c86.4 41.6 150.4 112 182.4 198.4 12.8-16 32-28.8 54.4-32-35.2-147.2-182.4-240-358.4-252.8-9.6 25.6-38.4 41.6-67.2 41.6-41.6 0-70.4-28.8-70.4-64s35.2-64 70.4-64 60.8 19.2 67.2 44.8c208 16 371.2 128 406.4 300.8 38.4 9.6 57.6 35.2 57.6 67.2v150.4c0 48-38.4 80-86.4 80zM864 505.6c-54.4 131.2-195.2 227.2-358.4 227.2S201.6 640 147.2 505.6l-9.6 9.6c32 160 185.6 281.6 364.8 281.6 185.6 0 336-121.6 364.8-281.6 0-3.2-3.2-6.4-3.2-9.6zM352 60.8z"  horiz-adv-x="1024" />

    
    <glyph glyph-name="dianhua" unicode="&#59039;" d="M637.050592-128c-5.104106 0-10.208212 0-15.312317 2.552053-84.217746 12.760265-219.47655 66.353376-382.807936 242.445026-142.914963 158.22728-222.028603 311.350455-204.164233 410.880518 12.760265 99.530063 155.675227 160.779333 160.779334 163.331386 12.760265 5.104106 28.072582 0 33.176687-10.208211l119.946487-201.61218c5.104106-7.656159 5.104106-15.312317 2.552053-22.968476-2.552053-7.656159-7.656159-12.760265-15.312318-15.312318 0 0-15.312317-7.656159-17.86437-25.520529-5.104106-20.416423 0-66.353376 71.457481-150.571121 45.936952-56.145164 94.425958-86.769799 135.258805-86.769799 38.280794-2.552053 61.24927 22.968476 63.801322 22.968476 10.208212 10.208212 25.520529 10.208212 35.728741 2.552053l188.851915-142.914963c10.208212-7.656159 12.760265-22.968476 7.656159-33.176688-5.104106-7.656159-79.11364-155.675227-183.74781-155.675227zM195.54544 632.511766c-40.832847-22.968476-102.082116-66.353376-109.738276-114.84238-10.208212-63.801323 35.728741-193.956021 191.403969-364.943566 153.123174-165.883439 275.621714-214.372444 349.631248-227.132709 53.593111-7.656159 107.186222 61.24927 132.706751 104.634169l-153.123174 114.842381c-17.86437-12.760265-45.936952-25.520529-84.217746-25.520529-58.697217 2.552053-117.394434 38.280794-176.091651 107.186222-66.353376 79.11364-94.425958 145.467016-81.665693 199.060127 5.104106 20.416423 15.312317 35.728741 25.520529 43.384899l-94.425957 163.331386zM966.265417 308.401047c-12.760265 0-25.520529 10.208212-25.520529 22.968476-2.552053 15.312317-5.104106 33.176688-7.656158 48.489006-2.552053 15.312317 7.656159 28.072582 20.416423 30.624634 15.312317 2.552053 28.072582-7.656159 30.624635-20.416423 2.552053-17.86437 7.656159-35.728741 7.656159-53.593111 2.552053-15.312317-7.656159-28.072582-22.968477-30.624635 0 2.552053 0 2.552053-2.552053 2.552053z m-40.832846 160.779333c-10.208212 0-20.416423 7.656159-25.520529 17.864371-5.104106 10.208212-7.656159 20.416423-12.760265 30.624635-20.416423 45.936952-48.489005 89.321852-81.665693 130.154698-74.009534 89.321852-168.435492 158.22728-278.173767 196.508074-15.312317 5.104106-20.416423 20.416423-17.86437 33.176687 5.104106 15.312317 20.416423 20.416423 33.176688 17.864371 119.946487-40.832847 224.580656-114.842381 303.694296-211.820391 35.728741-43.384899 63.801323-89.321852 86.769799-140.36291 5.104106-10.208212 10.208212-20.416423 12.760264-33.176688 5.104106-12.760265-2.552053-30.624635-15.312317-35.728741 2.552053-5.104106-2.552053-5.104106-5.104106-5.104106zM802.934031 310.9531c-12.760265 0-22.968476 10.208212-25.520529 22.968476-12.760265 76.561587-45.936952 148.019069-94.425957 209.268339-48.489005 61.24927-112.290328 107.186222-183.74781 135.258804-12.760265 5.104106-20.416423 20.416423-15.312317 35.72874 5.104106 12.760265 20.416423 20.416423 35.728741 15.312318 79.11364-33.176688 150.571122-84.217746 206.716285-153.123175 53.593111-68.905428 91.873905-148.019069 107.186222-234.788867 2.552053-15.312317-7.656159-28.072582-22.968476-30.624635-5.104106 2.552053-5.104106 0-7.656159 0zM634.49854 321.161312c-12.760265 0-22.968476 7.656159-25.52053 20.416423-10.208212 35.728741-28.072582 71.457481-53.593111 102.082116-25.520529 30.624635-56.145164 56.145164-89.321851 74.009535-12.760265 7.656159-17.86437 22.968476-10.208212 35.72874 7.656159 12.760265 22.968476 17.86437 35.728741 10.208212 40.832847-22.968476 76.561587-51.041058 107.186222-89.321852 28.072582-35.728741 51.041058-76.561587 63.801323-119.946487 5.104106-15.312317-5.104106-28.072582-17.864371-33.176687h-10.208211z"  horiz-adv-x="1024" />

    
    <glyph glyph-name="shengji" unicode="&#58928;" d="M1092.180806 311.615506c-7.217529 37.578222-26.072016 69.782522-52.765106 97.201288-30.870627 31.713979-67.768936 52.425149-111.682108 59.551151-13.421727 2.177026-27.098422 2.817713-41.278513 4.223301 0 2.301241-0.045763 4.792073 0 7.282905 1.059094 56.6746-11.133561 110.191532-38.768067 159.844731-66.016855 118.638133-195.317841 181.628071-329.607028 160.818837-135.590173-21.011901-243.218959-127.751571-264.413913-262.41994-0.7126-4.530568-2.11165-6.151897-6.864498-6.315338-58.779713-2.039736-109.864651-22.93396-152.816793-63.225292-59.028142-55.373615-81.373717-124.463149-73.816232-203.65984 5.112416-53.556157 27.588743-99.822871 65.193115-138.420961 41.919199-43.043669 92.821084-68.298483 152.927933-70.893917 50.313499-2.170489 100.790439-0.791052 151.188927-0.895653l5.288932-0.006538v44.396956c-43.180959-0.019613-86.361918-0.019613-129.549415 0.111139-68.847643 0.202666-125.404566 26.41851-165.486695 83.073498-32.47888 45.900608-44.364268 97.253588-31.158282 152.764492 12.297257 51.673323 40.27172 92.925686 85.610092 121.397007 37.519383 23.561571 78.307574 34.276725 122.81567 29.661168 16.795138-1.745544 17.429286-0.96103 18.318403 15.441851 1.941672 36.002656 11.205475 70.115941 27.399152 102.163338 46.567445 92.154247 122.233822 144.795138 224.174881 153.954339 93.742888 8.42045 172.455794-27.464528 232.124623-100.038613 51.294142-62.38194 71.475765-134.838347 59.263497-215.538689-1.915522-12.689514-1.23561-15.062669 12.996782-14.879616 26.895756 0.320343 53.693447 0.588386 80.216559-6.446091 77.464222-20.54773 130.608509-99.659431 119.435722-179.045712-11.1924-79.517034-78.974411-140.604525-159.086368-142.15394-49.692426-0.954492-99.411002-0.372644-149.12304-0.41187h-21.273405v-44.488483c55.425916 0 110.838756 0.006538 166.264671 0.052301 9.041524 0.006538 18.154962 0.104602 27.118034 1.137546 45.822156 5.256244 85.570867 23.731549 118.723122 55.890086 57.262986 55.52398 73.273609 123.547883 58.629348 199.874559zM527.585679 380.168957l-56.628837-48.482967c-20.279687-17.376986-40.467848-34.858573-60.917514-52.032892-2.36008-1.980898-6.073446-2.758874-9.283416-3.203433-4.49788-0.621074-6.929874 1.889371-6.923336 6.518004 0.006538 14.866541-0.392257 29.746157 0.346493 44.573472 0.169978 3.386486 3.732979 7.210991 6.66837 9.747587 26.830379 23.293529 53.863425 46.345166 80.837632 69.468716l65.591909 56.21043c7.126002 6.112672 12.349558 6.099597 19.488636-0.032688 48.136473-41.2589 96.194494-82.602789 144.507483-123.63941 6.361101-5.400072 9.682211-10.813218 9.067674-19.47556-0.797589-11.081261 0.098064-22.286736-0.320343-33.41376-0.124215-3.281884-1.693243-8.825783-3.504163-9.231115-3.726442-0.82374-9.133051-0.183053-11.989989 2.137801-17.272384 14.082027-34.01522 28.811277-50.934573 43.324786-20.456203 17.540426-40.912406 35.054701-61.368609 52.575515-1.379437 1.183309-2.863476 2.24894-5.811941 4.550181v-9.113438l0.02615-395.05511c0-11.852699-0.418407-12.297257-12.04229-12.297257-12.081516-0.013075-24.149957-0.02615-36.231472 0-9.669135 0.013075-10.604015 0.993718-10.604015 10.943971l0.013075 395.05511v10.872057h0.013076z"  horiz-adv-x="1110" />

    
    <glyph glyph-name="qq2" unicode="&#58921;" d="M511.99421562 864C246.90611938 864 32.01735406 649.07652656 32.01735406 384s214.88876531-479.98843031 479.97686156-479.98843031 479.98843031 214.87719656 479.98843032 479.98843031S777.09388062 864 511.99421562 864z m264.22039594-629.60302687c-12.40232344-11.56933125-33.67832438 1.02967031-54.13290281 29.33982468a309.79199344 309.79199344 0 0 0-33.79401844-65.864205c28.92332906-10.41239812 47.43426-26.49376969 47.43426-44.68075875 0-31.410735-55.53279188-56.82855656-124.18520531-56.8285575-40.70090906 0-76.65839156 8.88524625-99.38055938 22.7337375-22.52548875-13.8831975-58.67965031-22.73373656-99.38055843-22.7337375-68.59456687 0-124.18520531 25.45252969-124.18520532 56.8285575 0 17.97874125 18.59191594 34.30306875 47.52681375 44.63448094a300.46711219 300.46711219 0 0 0-33.88657218 65.94519094c-20.45457844-28.10190656-41.74214812-40.90915688-54.13290282-29.33982563-16.93750125 15.90783094-10.53966094 72.11164406 14.66991282 125.42312438a251.69080969 251.69080969 0 0 0 18.38366812 32.64865406c3.47079938 155.02904344 105.58172063 279.36465094 230.79659625 279.36465094h0.48591188c125.21487656 0 227.27952-124.18520531 230.79659718-279.36465094a251.77179469 251.77179469 0 0 0 18.37209844-32.66022281c25.02446437-53.33461875 31.60741406-109.53843188 14.61206625-125.44626281z"  horiz-adv-x="1024" />

    
    </font>
</defs>
</svg>
